<?xml version="1.0" encoding="UTF-8"?>
<svg id="wrapper" xmlns="http://www.w3.org/2000/svg" xmlns:xlink="http://www.w3.org/1999/xlink" viewBox="0 0 128 128">
  <defs>
    <style>
      .cls-1 {
        fill: url(#linear-gradient);
      }

      .cls-1, .cls-2, .cls-3, .cls-4, .cls-5, .cls-6, .cls-7 {
        stroke-width: 0px;
      }

      .cls-2 {
        fill: #c0bfbc;
      }

      .cls-8 {
        filter: url(#drop-shadow-1);
      }

      .cls-3 {
        fill: url(#linear-gradient-2);
      }

      .cls-4 {
        fill: #deddda;
      }

      .cls-9 {
        fill: none;
        isolation: isolate;
        opacity: .6;
        stroke: #a51d2d;
        stroke-width: 7px;
      }

      .cls-5 {
        fill: #fff;
      }

      .cls-6 {
        fill: #ec343c;
      }

      .cls-7 {
        fill: #ed333b;
      }
    </style>
    <linearGradient id="linear-gradient" x1="107.21" y1="54.64" x2="21.21" y2="55.14" gradientTransform="translate(0 127.89) scale(1 -1)" gradientUnits="userSpaceOnUse">
      <stop offset="0" stop-color="#9a9996"/>
      <stop offset=".03" stop-color="#deddda"/>
      <stop offset=".07" stop-color="#9a9996"/>
      <stop offset=".38" stop-color="#9a9996"/>
      <stop offset=".53" stop-color="#9a9996"/>
      <stop offset=".63" stop-color="#9a9996"/>
      <stop offset=".74" stop-color="#9a9996"/>
      <stop offset=".93" stop-color="#9a9996"/>
      <stop offset=".97" stop-color="#deddda"/>
      <stop offset="1" stop-color="#9a9996"/>
    </linearGradient>
    <filter id="drop-shadow-1" filterUnits="userSpaceOnUse">
      <feOffset dx="0" dy="0"/>
      <feGaussianBlur result="blur" stdDeviation="4"/>
      <feFlood flood-color="#000" flood-opacity=".2"/>
      <feComposite in2="blur" operator="in"/>
      <feComposite in="SourceGraphic"/>
    </filter>
    <linearGradient id="linear-gradient-2" x1="62.81" y1="99.38" x2="63.09" y2="110.88" gradientTransform="translate(0 127.89) scale(1 -1)" gradientUnits="userSpaceOnUse">
      <stop offset="0" stop-color="#000"/>
      <stop offset="1" stop-color="#5e5c64"/>
    </linearGradient>
  </defs>
  <rect id="bg" class="cls-7" x="21" y="13" width="86" height="103" rx="4" ry="4"/>
  <line id="line" class="cls-9" x1="21" y1="25.5" x2="107" y2="25.49"/>
  <rect id="stack" class="cls-1" x="21" y="33" width="86" height="80" rx="4" ry="4"/>
  <rect id="paper_stack" data-name="paper stack" class="cls-2" x="21" y="25" width="86" height="80" rx="4" ry="4"/>
  <g id="paper_sheet_2" data-name="paper sheet 2">
    <path id="sheet" class="cls-4" d="M18.21,33.37l71.62-14.86c2.21-.46,4.42.89,4.94,3.01l16.58,67.04c.52,2.12-.84,4.21-3.05,4.67l-71.62,14.86c-2.21.46-4.42-.89-4.94-3.01L15.16,38.04c-.52-2.12.84-4.21,3.05-4.67Z"/>
  </g>
  <g id="paper_sheet" data-name="paper sheet" class="cls-8">
    <path id="sheet-2" data-name="sheet" class="cls-5" d="M31.28,17.88l71.29,10.3c2.19.32,3.7,2.34,3.38,4.53l-10.46,71.51c-.32,2.18-2.35,3.7-4.54,3.38l-71.29-10.3c-2.19-.32-3.7-2.34-3.38-4.53L26.74,21.26c.32-2.18,2.35-3.7,4.54-3.38Z"/>
  </g>
  <path id="sentence_line" data-name="sentence line" class="cls-4" d="M36.94,32.84c-.33-.05-.63.18-.68.51-.05.33.18.63.51.68l.09-.59.09-.59ZM93.88,42.27c.33.05.63-.18.68-.51.05-.33-.18-.63-.51-.68l-.09.59-.09.59ZM36.85,33.43l-.09.59,57.12,8.25.09-.59.09-.59-57.12-8.25-.09.59Z"/>
  <path id="sentence_line-2" data-name="sentence line" class="cls-4" d="M35.77,40.75c-.33-.05-.63.18-.68.51-.05.33.18.63.51.68l.09-.59.09-.59ZM92.72,50.19c.33.05.63-.18.68-.51.05-.33-.18-.63-.51-.68l-.09.59-.09.59ZM35.69,41.34l-.09.59,57.12,8.25.09-.59.09-.59-57.12-8.25-.09.59Z"/>
  <path id="sentence_line-3" data-name="sentence line" class="cls-4" d="M34.61,48.66c-.33-.05-.63.18-.68.51-.05.33.18.63.51.68l.09-.59.09-.59ZM91.56,58.1c.33.05.63-.18.68-.51.05-.33-.18-.63-.51-.68l-.09.59-.09.59ZM34.52,49.25l-.09.59,57.12,8.25.09-.59.09-.59-57.12-8.25-.09.59Z"/>
  <path id="sentence_line-4" data-name="sentence line" class="cls-4" d="M33.45,56.57c-.33-.05-.63.18-.68.51-.05.33.18.63.51.68l.09-.59.09-.59ZM90.4,66.01c.33.05.63-.18.68-.51.05-.33-.18-.63-.51-.68l-.09.59-.09.59ZM33.36,57.16l-.09.59,57.12,8.25.09-.59.09-.59-57.12-8.25-.09.59Z"/>
  <path id="sentence_line-5" data-name="sentence line" class="cls-4" d="M32.29,64.48c-.33-.05-.63.18-.68.51-.05.33.18.63.51.68l.09-.59.09-.59ZM89.23,73.92c.33.05.63-.18.68-.51.05-.33-.18-.63-.51-.68l-.09.59-.09.59ZM32.2,65.08l-.09.59,57.12,8.25.09-.59.09-.59-57.12-8.25-.09.59Z"/>
  <path id="sentence_line-6" data-name="sentence line" class="cls-4" d="M31.13,72.39c-.33-.05-.63.18-.68.51s.18.63.51.68l.09-.59.09-.59ZM88.07,81.83c.33.05.63-.18.68-.51.05-.33-.18-.63-.51-.68l-.09.59-.09.59ZM31.04,72.99l-.09.59,57.12,8.25.09-.59.09-.59-57.12-8.25-.09.59Z"/>
  <path id="sentence_line-7" data-name="sentence line" class="cls-4" d="M29.97,80.31c-.33-.05-.63.18-.68.51s.18.63.51.68l.09-.59.09-.59ZM86.91,89.74c.33.05.63-.18.68-.51.05-.33-.18-.63-.51-.68l-.09.59-.09.59ZM29.88,80.9l-.09.59,57.12,8.25.09-.59.09-.59-57.12-8.25-.09.59Z"/>
  <path id="sentence_line-8" data-name="sentence line" class="cls-4" d="M28.8,88.22c-.33-.05-.63.18-.68.51-.05.33.18.63.51.68l.09-.59.09-.59ZM85.75,97.66c.33.05.63-.18.68-.51.05-.33-.18-.63-.51-.68l-.09.59-.09.59ZM28.72,88.81l-.09.59,57.12,8.25.09-.59.09-.59-57.12-8.25-.09.59Z"/>
  <g id="cllip">
    <path class="cls-3" d="M70.51,6c2.21,0,4,1.79,4,4v8.73c0,.52-.1,1.02-.28,1.48h8.74c1.94,0,3.37,1.81,2.92,3.7l-.57,2.39c-.32,1.35-1.53,2.3-2.92,2.3h-38.84c-1.36,0-2.55-.92-2.9-2.24l-.63-2.39c-.5-1.9.94-3.76,2.9-3.76h8.98c-.18-.46-.28-.96-.28-1.48v-8.73c0-2.21,1.79-4,4-4h14.89ZM84.22,26.39s-.04.1-.07.14c.03-.05.05-.1.07-.15h0ZM41.61,26.11c.01.05.03.11.05.16-.02-.05-.04-.11-.05-.16l-.5-1.89.5,1.89Z"/>
    <path class="cls-4" d="M73.79,14.14c.4,0,.79.16,1.08.45l.9.92c.27.28.43.66.43,1.05v7.53c0,.28.22.5.5.5h5.53c.83,0,1.5.67,1.5,1.5v.27c0,.83-.67,1.5-1.5,1.5h-38.6c-.83,0-1.5-.67-1.5-1.5v-.27c0-.83.67-1.5,1.5-1.5h5.82c.28,0,.5-.22.5-.5v-8.14l.14-.15,1.18-1.21c.28-.29.67-.45,1.07-.45h21.45ZM52.06,17.06v8.18h21.85v-8.18h-21.85Z"/>
  </g>
  <g id="scissors">
    <path class="cls-2" d="M81.56,85.2s-3-28.5-2.5-29,2,0,3,1,1.19,1.38,1.5,2c.31.62,3,26,3,26h-5Z"/>
    <path class="cls-4" d="M92.56,78.72s-24.53-14.82-25.19-14.58c-.66.24-.85,1.81-.37,3.14.48,1.33.74,1.66,1.17,2.21.43.54,22.26,13.76,22.26,13.76l2.12-4.53Z"/>
    <circle class="cls-2" cx="82.5" cy="75.5" r="1.5"/>
    <path class="cls-7" d="M95.38,78.86c2.13-3.05,6.58-3.63,9.93-1.29l.31.23c3.11,2.39,3.98,6.58,1.91,9.54l-.21.28c-2.1,2.68-6.1,3.23-9.28,1.29h0s-.02-.01-.02-.01c-.14-.09-.28-.18-.42-.27h0s-8.12-5.28-8.12-5.28c-.93-.6-1.19-1.84-.59-2.77l1.3-2c.6-.93,1.85-1.19,2.78-.58l2.09,1.38c.04-.08.09-.15.13-.23l.19-.29ZM103.6,80.03c-2.22-1.55-4.72-.94-5.76.54-1.03,1.48-.74,4.04,1.48,5.59,2.22,1.55,4.72.94,5.75-.54,1.03-1.48.75-4.04-1.48-5.59Z"/>
    <path class="cls-7" d="M80.78,87.99c-3.69.52-6.21,4.22-5.65,8.27l.06.38c.72,3.85,4.07,6.53,7.64,6.03l.34-.06c3.34-.66,5.64-3.97,5.36-7.69h0s0-.02,0-.02c-.01-.17-.03-.33-.05-.5h0s-1.03-9.64-1.03-9.64c-.12-1.1-1.1-1.89-2.2-1.78l-2.37.25c-1.1.12-1.9,1.11-1.78,2.21l.28,2.49c-.09,0-.18,0-.27.02l-.34.04ZM78.1,95.85c-.38-2.68,1.31-4.64,3.09-4.88,1.79-.25,3.94,1.17,4.31,3.85.37,2.68-1.31,4.63-3.09,4.88-1.79.25-3.94-1.17-4.31-3.85Z"/>
  </g>
  <path id="clip" class="cls-6" d="M27.97,50.41c.06.05.11.11.14.17.04.07.06.14.07.21,0,.08,0,.15-.02.22-.02.07-.05.14-.1.2-.05.06-.1.11-.17.14-.06.04-.14.06-.21.07-.07,0-.15,0-.22-.02-.07-.02-.14-.06-.2-.1l-8.01-6.57c-.86-.73-1.4-1.77-1.51-2.9-.11-1.13.22-2.26.92-3.14.7-.88,1.71-1.44,2.81-1.57,1.11-.12,2.22.2,3.09.91l9.62,7.88.05.04c.65.6,1.05,1.26,1.16,1.99.11.73-.08,1.51-.62,2.32h0s-.02.03-.02.03c-.27.36-.62.65-1.01.87-.38.2-.8.3-1.23.3-.52,0-1.04-.14-1.49-.4-.39-.23-.76-.49-1.1-.79l-8.93-7.32c-.37-.3-.61-.74-.66-1.22-.06-.48.08-.96.37-1.34h.01c.29-.39.71-.63,1.18-.68.46-.06.93.07,1.3.36l.04.03,7.69,6.3c.06.05.11.11.14.17.04.07.06.14.07.21,0,.08,0,.15-.02.22-.02.07-.05.14-.1.2-.05.06-.1.11-.17.14-.06.04-.14.06-.21.07-.07,0-.15,0-.22-.02-.07-.02-.14-.06-.2-.1l-7.71-6.32c-.14-.1-.31-.15-.48-.12s-.32.11-.43.24c-.11.14-.16.32-.14.5.02.18.11.34.25.46l8.93,7.32c.29.25.6.47.93.67.3.17.63.26.97.26.25,0,.49-.05.71-.17.25-.14.47-.33.64-.55.36-.54.5-1.03.43-1.47-.07-.44-.35-.88-.81-1.31l-9.62-7.88c-.64-.51-1.46-.75-2.26-.66-.81.09-1.55.5-2.06,1.15-.51.64-.75,1.47-.68,2.3.08.83.47,1.59,1.09,2.13l8.01,6.57Z"/>
  <path id="paper" class="cls-5" d="M23.13,45.99l5.86,4.33-.72,1.74-5.54-3.37.4-2.7Z"/>
</svg>