<?xml version="1.0" encoding="UTF-8"?>
<svg height="16px" viewBox="0 0 16 16" width="16px" xmlns="http://www.w3.org/2000/svg" xmlns:xlink="http://www.w3.org/1999/xlink">
    <filter id="a" height="100%" width="100%" x="0%" y="0%">
        <feColorMatrix color-interpolation-filters="sRGB" values="0 0 0 0 1 0 0 0 0 1 0 0 0 0 1 0 0 0 1 0"/>
    </filter>
    <mask id="b">
        <g filter="url(#a)">
            <rect fill-opacity="0.2" height="19.2" width="19.2" x="-1.6" y="-1.6"/>
        </g>
    </mask>
    <clipPath id="c">
        <rect height="152" width="192"/>
    </clipPath>
    <mask id="d">
        <g filter="url(#a)">
            <rect fill-opacity="0.2" height="19.2" width="19.2" x="-1.6" y="-1.6"/>
        </g>
    </mask>
    <clipPath id="e">
        <rect height="152" width="192"/>
    </clipPath>
    <g mask="url(#b)">
        <g clip-path="url(#c)" transform="matrix(1 0 0 1 -168 -16)">
            <path d="m 65.714844 89.101562 v 0.953126 l -2.882813 2.96875 l -0.03125 -0.882813 z m 0 0" fill-rule="evenodd"/>
        </g>
    </g>
    <g mask="url(#d)">
        <g clip-path="url(#e)" transform="matrix(1 0 0 1 -168 -16)">
            <path d="m 66.683594 87.011719 l -0.011719 1.066406 h 1.445313 l 0.011718 -1.066406 z m 0 0" fill-rule="evenodd"/>
        </g>
    </g>
    <path d="m 10.324219 6.289062 l 0.546875 0.144532 l -0.144532 0.546875 l -3.722656 2.148437 l -0.402344 -0.691406 z m 0 0"/>
    <path d="m 168.753872 185.251285 c -0.005516 0.966697 -0.783094 1.747029 -1.754674 1.749972 c -0.966696 -0.005516 -1.747029 -0.783094 -1.749971 -1.754674 c 0.000632 -0.958238 0.783094 -1.747029 1.74979 -1.741513 c 0.97158 -0.002943 1.751913 0.774635 1.754855 1.746215 z m 0 0" fill="none" stroke="#000000" stroke-linecap="round" stroke-linejoin="round" stroke-width="1.5" transform="matrix(0.199977 0.34637 -0.34637 0.199977 37.05142 -85.805782)"/>
    <path d="m 7.792969 5.210938 l 0.402343 -0.402344 l 0.398438 0.402344 v 4.296874 h -0.800781 z m 0 0"/>
    <path d="m 8.8944615062 10.10929815318 c 0 0.38671815528 -0.31249967697 0.69921783225 -0.69921783225 0.69921783225 c -0.38671855523 0 -0.6992182322 -0.31249967697 -0.6992182322 -0.69921783225 c 0 -0.38671855523 0.31249967697 -0.6992182322 0.6992182322 -0.6992182322 c 0.38671815528 0 0.69921783225 0.31249967697 0.69921783225 0.6992182322 z m 0 0" fill="none" stroke="#000000" stroke-linecap="round" stroke-linejoin="round" stroke-width="0.5999295"/>
    <g fill="#222222">
        <path d="m 11.910156 4.03125 c -0.046875 -0.042969 -0.097656 -0.089844 -0.148437 -0.136719 c -0.117188 -0.101562 -0.238281 -0.203125 -0.367188 -0.292969 c -1.066406 -0.800781 -2.398437 -1.144531 -3.71875 -0.957031 c -1.105469 0.15625 -2.070312 0.675781 -2.804687 1.417969 l 1.179687 1.179688 c 0.488281 -0.492188 1.136719 -0.839844 1.882813 -0.945313 c 1.832031 -0.257813 3.492187 1.007813 3.753906 2.835937 c 0.066406 0.441407 0.019531 0.886719 -0.089844 1.308594 l -0.847656 -0.847656 c -0.324219 -0.324219 -0.855469 -0.324219 -1.179688 0 l -0.585937 0.589844 l 3.53125 3.53125 l 3.535156 -3.53125 l -0.589843 -0.589844 c -0.324219 -0.324219 -0.855469 -0.324219 -1.179688 0 l -0.992188 0.992188 c 0.34375 -1.652344 -0.175781 -3.367188 -1.378906 -4.554688 z m 0 0"/>
        <path d="m 4.289062 11.742188 c 0.046876 0.046874 0.097657 0.09375 0.148438 0.140624 c 0.117188 0.101563 0.238281 0.199219 0.367188 0.292969 c 1.066406 0.796875 2.398437 1.144531 3.71875 0.957031 c 1.105468 -0.160156 2.070312 -0.675781 2.804687 -1.417968 l -1.179687 -1.179688 c -0.492188 0.488282 -1.136719 0.835938 -1.882813 0.941406 c -1.832031 0.261719 -3.492187 -1.003906 -3.757813 -2.832031 c -0.0625 -0.445312 -0.015624 -0.886719 0.09375 -1.308593 l 0.847657 0.847656 c 0.324219 0.324218 0.855469 0.324218 1.179687 0 l 0.585938 -0.589844 l -3.53125 -3.53125 l -3.535156 3.53125 l 0.589843 0.589844 c 0.324219 0.324218 0.855469 0.324218 1.179688 0 l 0.992187 -0.996094 c -0.34375 1.65625 0.175782 3.367188 1.378906 4.554688 z m 0 0"/>
    </g>
</svg>
