<?xml version="1.0" encoding="UTF-8"?>
<svg height="128px" viewBox="0 0 128 128" width="128px" xmlns="http://www.w3.org/2000/svg" xmlns:xlink="http://www.w3.org/1999/xlink">
    <defs>
        <filter id="a" height="100%" width="100%" x="0%" y="0%">
            <feColorMatrix color-interpolation-filters="sRGB" values="0 0 0 0 1 0 0 0 0 1 0 0 0 0 1 0 0 0 1 0"/>
        </filter>
        <linearGradient id="b" gradientTransform="matrix(-1 0 0 -1 135.45018 -171.653823)" gradientUnits="userSpaceOnUse" x1="27.99999" x2="115.999992" y1="-274" y2="-274">
            <stop offset="0" stop-color="#c0bfbc"/>
            <stop offset="0.0454545" stop-color="#f6f5f4"/>
            <stop offset="0.0909091" stop-color="#deddda"/>
            <stop offset="0.909091" stop-color="#deddda"/>
            <stop offset="0.954545" stop-color="#f6f5f4"/>
            <stop offset="1" stop-color="#c0bfbc"/>
        </linearGradient>
        <linearGradient id="c" gradientUnits="userSpaceOnUse">
            <stop offset="0" stop-opacity="0.155304"/>
            <stop offset="1" stop-opacity="0"/>
        </linearGradient>
        <linearGradient id="d" gradientTransform="matrix(0.965926 0.258819 -0.258819 0.965926 -4.549807 -191.65382)" x1="167.194427" x2="171.058136" xlink:href="#c" y1="191.243362" y2="190.208084"/>
        <linearGradient id="e" gradientTransform="matrix(-0.965926 -0.258819 0.258819 -0.965926 131.438809 312.339343)" x1="167.194427" x2="171.058136" xlink:href="#c" y1="191.243362" y2="190.208084"/>
        <linearGradient id="f" gradientUnits="userSpaceOnUse" x1="96.288572" x2="101.068601" y1="25.184555" y2="20.404526">
            <stop offset="0" stop-color="#deddda"/>
            <stop offset="1" stop-color="#f3f2ef"/>
        </linearGradient>
        <linearGradient id="g" gradientTransform="matrix(2.590207 0 0 1.014429 -63.472397 263.592072)" gradientUnits="userSpaceOnUse" x1="32.025879" x2="50.261204" y1="-252" y2="-236.686462">
            <stop offset="0" stop-color="#e66100"/>
            <stop offset="1" stop-color="#ed333b"/>
        </linearGradient>
        <linearGradient id="h" gradientUnits="userSpaceOnUse" x1="84.094564" x2="94.720884" y1="35.615448" y2="24.98912">
            <stop offset="0" stop-color="#ffffff"/>
            <stop offset="0.342347" stop-color="#ececec"/>
            <stop offset="0.7" stop-color="#e8e8e8"/>
            <stop offset="1" stop-color="#ffffff"/>
        </linearGradient>
        <linearGradient id="i" gradientTransform="matrix(1.375 0 0 0.772987 -30.018759 -152.439592)" gradientUnits="userSpaceOnUse" x1="36" x2="41.090908" y1="241" y2="241">
            <stop offset="0" stop-color="#ff7800" stop-opacity="0"/>
            <stop offset="0.240073" stop-color="#f5c211" stop-opacity="0.603922"/>
            <stop offset="0.375534" stop-color="#f5c211" stop-opacity="0.443137"/>
            <stop offset="1" stop-color="#ff7800" stop-opacity="0"/>
        </linearGradient>
        <radialGradient id="j" cx="55.114456" cy="245.252563" gradientTransform="matrix(1 0 0 0.705766 0 72.161652)" gradientUnits="userSpaceOnUse" r="29.75535">
            <stop offset="0" stop-color="#f8dc7a" stop-opacity="0"/>
            <stop offset="1" stop-color="#99c1f1" stop-opacity="0.501961"/>
        </radialGradient>
        <linearGradient id="k" gradientTransform="matrix(0.569362 0 0 0.593861 105.617421 -85.619274)" gradientUnits="userSpaceOnUse" x1="-78" x2="-54" y1="312" y2="312">
            <stop offset="0" stop-color="#a51d2d"/>
            <stop offset="0.194233" stop-color="#f66151"/>
            <stop offset="0.5" stop-color="#c01c28"/>
            <stop offset="0.682316" stop-color="#e01b24"/>
            <stop offset="1" stop-color="#a51d2d"/>
        </linearGradient>
        <linearGradient id="l" gradientUnits="userSpaceOnUse">
            <stop offset="0" stop-color="#deddda" stop-opacity="0"/>
            <stop offset="1" stop-color="#c0bfbc"/>
        </linearGradient>
        <linearGradient id="m" gradientTransform="matrix(0.569362 0 0 0.593861 29.325974 15.359341)" x1="60" x2="64" xlink:href="#l" y1="62" y2="62"/>
        <linearGradient id="n" gradientTransform="matrix(0.569362 0 0 0.593861 24.771086 32.410953)" gradientUnits="userSpaceOnUse" x1="22.052956" x2="60" y1="93.909065" y2="93.909065">
            <stop offset="0" stop-color="#a51d2d"/>
            <stop offset="0.131939" stop-color="#f66151"/>
            <stop offset="0.298927" stop-color="#c01c28"/>
            <stop offset="0.459862" stop-color="#ed333b"/>
            <stop offset="0.592599" stop-color="#a51d2d"/>
            <stop offset="1" stop-color="#a51d2d"/>
        </linearGradient>
        <linearGradient id="o" gradientTransform="matrix(-0.402599 -0.419923 -0.402599 0.419923 127.903589 58.176598)" x1="60" x2="64" xlink:href="#l" y1="62" y2="62"/>
        <mask id="p">
            <g filter="url(#a)">
                <rect fill-opacity="0.2" height="153.6" width="153.6" x="-12.8" y="-12.8"/>
            </g>
        </mask>
        <mask id="q">
            <g filter="url(#a)">
                <rect fill-opacity="0.2" height="153.6" width="153.6" x="-12.8" y="-12.8"/>
            </g>
        </mask>
        <clipPath id="r">
            <path d="m 0 22 h 127 v 106 h -127 z m 0 0"/>
        </clipPath>
        <clipPath id="s">
            <path d="m 0 0 h 128 v 128 h -128 z m 0 0"/>
        </clipPath>
        <mask id="t">
            <g filter="url(#a)">
                <rect fill-opacity="0.2" height="221.184" width="221.184" x="-46.592" y="-46.592"/>
            </g>
        </mask>
        <clipPath id="u">
            <rect height="152" width="192"/>
        </clipPath>
        <g id="v" clip-path="url(#u)">
            <path d="m 73.765625 91.414062 v 1.117188 l -3.378906 3.480469 l -0.039063 -1.035157 z m 0 0" fill-rule="evenodd"/>
        </g>
        <mask id="w">
            <g filter="url(#a)">
                <rect fill-opacity="0.2" height="221.184" width="221.184" x="-46.592" y="-46.592"/>
            </g>
        </mask>
        <clipPath id="x">
            <rect height="152" width="192"/>
        </clipPath>
        <g id="y" clip-path="url(#x)">
            <path d="m 74.902344 88.964844 l -0.011719 1.25 h 1.691406 l 0.015625 -1.25 z m 0 0" fill-rule="evenodd"/>
        </g>
        <clipPath id="z">
            <rect height="128" width="128"/>
        </clipPath>
        <clipPath id="A">
            <rect height="128" width="128"/>
        </clipPath>
        <mask id="B">
            <g filter="url(#a)">
                <g clip-path="url(#A)" filter="url(#a)">
                    <g clip-path="url(#z)">
                        <path d="m 42.136719 0.800781 l 69.546875 18.632813 c 4.265625 1.144531 6.800781 5.53125 5.65625 9.800781 l -22.777344 85 c -1.144531 4.269531 -5.53125 6.800781 -9.796875 5.65625 l -69.546875 -18.632813 c -4.269531 -1.144531 -6.800781 -5.53125 -5.65625 -9.800781 l 22.773438 -85 c 1.144531 -4.265625 5.53125 -6.800781 9.800781 -5.65625 z m 0 0" fill="#deddda"/>
                        <path d="m 27.449219 61.347656 h 72 c 4.417969 0 8 3.582032 8 8 v 43 c 0 4.417969 -3.582031 8 -8 8 h -72 c -4.417969 0 -8 -3.582031 -8 -8 v -43 c 0 -4.417968 3.582031 -8 8 -8 z m 0 0" fill="#deddda"/>
                        <path d="m 99.449219 120.347656 h -72 c -4.417969 0 -8 -3.582031 -8 -8 v -24 c 0 -4.417968 3.582031 -8 8 -8 h 72 c 4.417969 0 8 3.582032 8 8 v 24 c 0 4.417969 -3.582031 8 -8 8 z m 0 0" fill="url(#b)"/>
                        <path d="m 99.449219 16.160156 v 79.835938 l 17.890625 -66.761719 c 1.144531 -4.28125 -1.375 -8.652344 -5.65625 -9.796875 z m 0 0" fill="url(#d)"/>
                        <path d="m 27.4375 104.527344 v -79.839844 l -17.886719 66.765625 c -1.148437 4.28125 1.375 8.648437 5.65625 9.796875 z m 0 0" fill="url(#e)"/>
                        <path d="m 27.449219 8.347656 h 72 c 4.417969 0 8 3.582032 8 8 v 88 c 0 4.417969 -3.582031 8 -8 8 h -72 c -4.417969 0 -8 -3.582031 -8 -8 v -88 c 0 -4.417968 3.582031 -8 8 -8 z m 0 0" fill="#f6f5f4"/>
                        <path d="m 107.449219 107 c -0.082031 4.089844 -3.378907 7.347656 -7.492188 7.347656 h -0.5 v 1 h 0.5 c 3.226563 0 6.023438 -1.789062 7.464844 -4.429687 c 0.011719 -0.1875 0.027344 -0.378907 0.027344 -0.570313 z m -42 7.347656 l 34 1 v -1 z m 0 0" fill="#939290" fill-opacity="0.271654"/>
                        <path d="m 65.636719 114.765625 l 14.082031 5.582031 c 13 5.855469 14.671875 -5.265625 14.671875 -5.582031 z m 0 0" fill-opacity="0.182575"/>
                        <path d="m 107.449219 110 c -0.082031 4.089844 -3.378907 7.347656 -7.492188 7.347656 h -0.5 v 1 h 0.5 c 3.226563 0 6.023438 -1.789062 7.464844 -4.429687 c 0.011719 -0.1875 0.027344 -0.378907 0.027344 -0.570313 z m -42 7.347656 l 34 1 v -1 z m 0 0" fill="#939290" fill-opacity="0.271654"/>
                        <path d="m 65.636719 114.765625 l 19.128906 5.125 c 4.097656 1.097656 8.269531 -1.171875 9.625 -5.125 z m 0 0" fill="#f6f5f4"/>
                        <path d="m 19.449219 110 c 0.082031 4.089844 3.382812 7.347656 7.492187 7.347656 h 0.5 v 1 h -0.5 c -3.222656 0 -6.019531 -1.789062 -7.460937 -4.429687 c -0.015625 -0.1875 -0.03125 -0.378907 -0.03125 -0.570313 z m 42 7.347656 l -34 1 v -1 z m 0 0" fill="#908f8d" fill-opacity="0.271654"/>
                        <path d="m 19.449219 107 c 0.082031 4.089844 3.382812 7.347656 7.492187 7.347656 h 0.5 v 1 h -0.5 c -3.222656 0 -6.019531 -1.789062 -7.460937 -4.429687 c -0.015625 -0.1875 -0.03125 -0.378907 -0.03125 -0.570313 z m 78 7.347656 l -70 1 v -1 z m 0 0" fill="#908f8d" fill-opacity="0.271654"/>
                        <path d="m 79.449219 8.347656 l 26 26 c 2.042969 3.132813 2 6 2 6 v -24 c 0 -4.433594 -3.566407 -8 -8 -8 z m 0 0" fill="url(#f)"/>
                        <path d="m 104.449219 35.621094 l -25 -25 v 20 c 0 4.433594 3.570312 8 8 8 h 15.796875 c 2.203125 0 4.5625 2.511718 4.203125 4 c -0.03125 -2.636719 -1.109375 -5.15625 -3 -7 z m 0 0" fill-opacity="0.211424"/>
                        <path d="m 27.480469 8.339844 h 51.75 l 25.917969 26.078125 l 2.332031 5.507812 v 2.425781 h -83.941407 c -2.101562 0 -4.058593 1.308594 -4.058593 2.617188 v -32.128906 c 0 -2.484375 3.582031 -4.5 8 -4.5 z m 0 0" fill="url(#g)"/>
                        <path d="m 104.449219 33.347656 l -25 -25 v 20 c 0 4.429688 3.570312 8 8 8 h 15.796875 c 2.203125 0 4.5625 2.507813 4.203125 4 c -0.03125 -2.640625 -1.109375 -5.160156 -3 -7 z m 0 0" fill="url(#h)"/>
                        <path d="m 27.480469 8.339844 h 51.75 l 25.898437 26.105468 l 2.351563 5.488282 v 2.417968 h -83.941407 c -2.101562 0 -4.058593 1.308594 -4.058593 2.617188 v -32.128906 c 0 -2.484375 3.582031 -4.5 8 -4.5 z m 0 0" fill="url(#i)"/>
                        <path d="m 32.542969 35.601562 h 9.941406 c 0.785156 0 1.417969 0.464844 1.417969 1.042969 c 0 0.574219 -0.632813 1.039063 -1.417969 1.039063 h -9.941406 c -0.785157 0 -1.421875 -0.464844 -1.421875 -1.039063 c 0 -0.578125 0.636718 -1.042969 1.421875 -1.042969 z m 0 0" fill="#faa197"/>
                        <path d="m 33.25 29.359375 h 22.730469 c 1.179687 0 2.132812 0.699219 2.132812 1.5625 c 0 0.859375 -0.953125 1.558594 -2.132812 1.558594 h -22.730469 c -1.175781 0 -2.128906 -0.699219 -2.128906 -1.558594 c 0 -0.863281 0.953125 -1.5625 2.128906 -1.5625 z m 0 0" fill="#ffffff" fill-opacity="0.796078"/>
                        <path d="m 48.015625 58.019531 h 31.632813 c 2.054687 0 3.722656 1.472657 3.722656 3.285157 v 31.199218 c 0 1.808594 -1.667969 3.28125 -3.722656 3.28125 h -31.632813 c -2.058594 0 -3.726563 -1.472656 -3.726563 -3.28125 v -31.199218 c 0 -1.8125 1.667969 -3.285157 3.726563 -3.285157 z m 0 0" fill="#99c1f1" fill-opacity="0.309804"/>
                        <path d="m 80.613281 58.460938 c -8.929687 -9.109376 -22.976562 -9.972657 -32.882812 -2.59375 l 5.617187 5.726562 c 6.789063 -4.382812 15.8125 -3.5625 21.75 2.496094 c 4.898438 4.996094 6.292969 12.132812 4.21875 18.371094 l -5.597656 -5.714844 l -5.515625 5.628906 l 15.167969 15.472656 l 15.167968 -15.472656 l -5.515624 -5.628906 l -5.765626 5.882812 c 1.949219 -8.414062 -0.230468 -17.625 -6.644531 -24.167968 z m -38.609375 -2.8125 l -15.167968 15.472656 l 5.515624 5.625 l 5.667969 -5.78125 c -1.871093 8.390625 0.359375 17.558594 6.742188 24.070312 c 8.921875 9.101563 22.914062 9.886719 32.8125 2.527344 l -5.550781 -5.664062 c -6.789063 4.386718 -15.8125 3.5625 -21.746094 -2.492188 c -4.898438 -4.996094 -6.296875 -12.132812 -4.222656 -18.371094 l 5.601562 5.710938 l 5.515625 -5.625 z m 0 0" fill="#3584e4"/>
                        <g clip-path="url(#r)">
                            <path d="m 68.690415 231.69487 c -6.762353 -6.762723 -17.399896 -7.403616 -24.901789 -1.925578 l 4.253834 4.251352 c 5.141282 -3.253763 11.974631 -2.64477 16.471033 1.853079 c 3.709533 3.709058 4.765596 9.007299 3.194813 13.638546 l -4.239043 -4.242652 l -4.176921 4.178853 l 11.486534 11.48677 l 11.486534 -11.48677 l -4.176921 -4.178853 l -4.366244 4.367351 c 1.476122 -6.24653 -0.174532 -13.084652 -5.03183 -17.942098 z m -29.238451 -2.087976 l -11.486534 11.48677 l 4.176921 4.175953 l 4.29229 -4.291951 c -1.416958 6.229129 0.272151 13.035352 5.105784 17.869598 c 6.756437 6.756923 17.352565 7.339817 24.848542 1.876279 l -4.203545 -4.204953 c -5.141282 3.256663 -11.974631 2.64477 -16.468076 -1.850179 c -3.709532 -3.709058 -4.768553 -9.007298 -3.19777 -13.638546 l 4.242001 4.239752 l 4.176921 -4.175953 z m 0 0" fill="none" stroke="url(#j)" stroke-width="3.68407" transform="matrix(1.3205 0 0 1.346998 -10.092413 -253.631584)"/>
                        </g>
                        <path d="m 80.613281 58.460938 c -8.929687 -9.109376 -22.976562 -9.972657 -32.882812 -2.59375 l 5.617187 5.726562 c 6.789063 -4.382812 15.8125 -3.5625 21.75 2.496094 c 4.898438 4.996094 6.292969 12.132812 4.21875 18.371094 l -5.597656 -5.714844 l -5.515625 5.628906 l 15.167969 15.472656 l 15.167968 -15.472656 l -5.515624 -5.628906 l -5.765626 5.882812 c 1.949219 -8.414062 -0.230468 -17.625 -6.644531 -24.167968 z m -38.609375 -2.8125 l -15.167968 15.472656 l 5.515624 5.625 l 5.667969 -5.78125 c -1.871093 8.390625 0.359375 17.558594 6.742188 24.070312 c 8.921875 9.101563 22.914062 9.886719 32.8125 2.527344 l -5.550781 -5.664062 c -6.789063 4.386718 -15.8125 3.5625 -21.746094 -2.492188 c -4.898438 -4.996094 -6.296875 -12.132812 -4.222656 -18.371094 l 5.601562 5.710938 l 5.515625 -5.625 z m 0 0" fill="#3584e4"/>
                        <path d="m 83.617188 50.621094 l -18.519532 19.3125 l -10.464844 10.917968 l 2.410157 2.519532 l 9.863281 -10.40625 h 1.691406 l 11.796875 -12.269532 c 6.441407 -6.71875 3.222657 -10.074218 3.222657 -10.074218 z m 0 0" fill="#9a9996" fill-rule="evenodd"/>
                        <path d="m 268.056999 152.02781 c -0.004043 4.701705 -3.817154 8.514816 -8.518858 8.518858 c -4.701505 -0.005459 -8.515449 -3.819403 -8.516257 -8.516256 c -0.000608 -4.706356 3.812503 -8.519467 8.518859 -8.518859 c 4.696853 0.000809 8.510797 3.814752 8.516256 8.516257 z m 0 0" fill="none" stroke="#c01c28" stroke-linecap="round" stroke-linejoin="round" stroke-width="5" transform="matrix(0.402599 0.419923 -0.402599 0.419923 24.771092 -73.125922)"/>
                        <path d="m 62.347656 86.601562 h 3.414063 v -42.757812 l -0.804688 -0.839844 s -3.75 3.003906 -3.75 10.339844 l 0.003907 16.148438 l 0.054687 1.617187 l 1.082031 1.238281 z m 0 0" fill="#9a9996" fill-rule="evenodd"/>
                        <path d="m 68.039062 92.539062 c -3.753906 0 -6.832031 3.210938 -6.832031 7.125 c 0 3.914063 3.078125 7.128907 6.832031 7.128907 c 3.753907 0 6.832032 -3.214844 6.832032 -7.128907 c 0 -3.914062 -3.078125 -7.125 -6.832032 -7.125 z m 0 1.1875 c 1.90625 0 4.554688 1.574219 4.554688 3.5625 c 0 1.988282 -2.648438 5.9375 -4.554688 5.9375 s -4.554687 -3.949218 -4.554687 -5.9375 c 0 -1.988281 2.648437 -3.5625 4.554687 -3.5625 z m 0 0" fill="url(#k)"/>
                        <path d="m 62.347656 85.433594 h 3.417969 v -42.757813 s -4.554687 0 -4.554687 9.503907 l 0.027343 17.375 l 1.195313 1.25 z m 0 0" fill="#9a9996" fill-rule="evenodd"/>
                        <path d="m 61.210938 98.5 v -14.253906 c 0 -1.1875 1.136718 -1.1875 1.136718 -1.1875 h 3.4375 s 1.09375 -0.078125 1.390625 0.863281 l 2.503907 7.878906 z m 0 0" fill="#ed333b" fill-rule="evenodd"/>
                        <path d="m -56.53288 312.033148 c 0 5.255598 -4.260529 9.517961 -9.515867 9.517961 c -5.255339 0 -9.515868 -4.262363 -9.515868 -9.517961 c 0 -5.255599 4.260529 -9.517962 9.515868 -9.517962 c 5.255338 0 9.515867 4.262363 9.515867 9.517962 z m 0 0" fill="none" stroke="#ed333b" stroke-linecap="round" stroke-linejoin="round" stroke-width="5" transform="matrix(-0.569362 0 0 0.593861 30.464697 -86.784709)"/>
                        <path d="m -59.002752 312.000259 c 0 3.8677 -3.128504 6.998694 -6.99797 6.998694 c -3.862605 0 -6.99797 -3.130994 -6.99797 -6.998694 s 3.135365 -6.998695 6.99797 -6.998695 c 3.869466 0 6.99797 3.130995 6.99797 6.998695 z m 0 0" fill="none" stroke="#e01b24" stroke-linecap="round" stroke-linejoin="round" stroke-width="2" transform="matrix(-0.569362 0 0 0.593861 30.464697 -86.784709)"/>
                        <path d="m 65.765625 42.675781 s -1.066406 0.320313 -2.277344 1.210938 v 24.921875 l 2.277344 1.1875 z m 0 0" fill="url(#m)" fill-rule="evenodd"/>
                        <path d="m 226.315996 169.666551 c 0.000609 4.706356 -3.812502 8.519467 -8.518858 8.518858 c -4.696854 -0.000808 -8.510797 -3.814752 -8.516257 -8.516256 c 0.004043 -4.701705 3.817154 -8.514816 8.518859 -8.518859 c 4.701504 0.00546 8.515448 3.819403 8.516256 8.516257 z m 0 0" fill="none" stroke="#c01c28" stroke-linecap="round" stroke-linejoin="round" stroke-width="5" transform="matrix(0.402599 0.419923 -0.402599 0.419923 24.771092 -73.125922)"/>
                        <path d="m 57.03125 84.621094 l -2.414062 -2.519532 l 28.941406 -30.457031 l 0.042968 0.222657 s 3.222657 3.359374 -3.21875 10.078124 l -11.800781 12.269532 h -1.691406 z m 0 0" fill="#77767b" fill-rule="evenodd"/>
                        <path d="m 55.421875 79.582031 l -7.246094 4.199219 l 0.007813 0.140625 c -2.664063 -2.035156 -6.460938 -1.808594 -8.867188 0.699219 c -2.652344 2.769531 -2.652344 7.3125 0 10.078125 c 2.65625 2.769531 7.011719 2.769531 9.664063 0 l 9.660156 -10.078125 c 0.136719 -0.140625 0.222656 -0.289063 0.292969 -0.445313 v -1.652343 z m -11.273437 4.128907 c 0.871093 0 1.742187 0.351562 2.417968 1.054687 c 1.347656 1.40625 1.347656 6.007813 0 7.414063 c -1.351562 1.40625 -3.484375 1.40625 -4.832031 0 c -1.351563 -1.40625 -1.351563 -6.007813 0 -7.414063 c 0.671875 -0.703125 1.542969 -1.054687 2.414063 -1.054687 z m 0 0" fill="url(#n)"/>
                        <path d="m 57.046875 83.371094 l -2.417969 -2.519532 l 28.988282 -30.234374 s 3.222656 3.359374 -3.21875 10.078124 l -11.800782 12.269532 h -1.695312 z m 0 0" fill="#9a9996" fill-rule="evenodd"/>
                        <path d="m 48.992188 93.449219 l 9.664062 -10.078125 c 0.804688 -0.839844 0 -1.679688 0 -1.679688 l -2.429688 -2.535156 s -0.71875 -0.863281 -1.566406 -0.417969 l -7.113281 3.726563 z m 0 0" fill="#ed333b" fill-rule="evenodd"/>
                        <path d="m -56.535363 312.03088 c -0.001497 5.257298 -4.260927 9.516727 -9.518224 9.518224 c -5.252446 -0.003354 -9.5129 -4.263808 -9.511603 -9.511603 c 0.001497 -5.257297 4.260926 -9.516726 9.518224 -9.518224 c 5.252646 -0.006148 9.5131 4.254306 9.511603 9.511603 z m 0 0" fill="none" stroke="#ed333b" stroke-linecap="round" stroke-linejoin="round" stroke-width="5" transform="matrix(0.402599 0.419923 -0.402599 0.419923 196.345488 -14.89)"/>
                        <path d="m -58.999545 312.002045 c -0.000584 3.861039 -3.134515 6.99497 -7.000406 7.000406 c -3.86569 -0.004067 -7.000566 -3.138942 -6.999981 -6.999982 c 0.000784 -3.870541 3.134715 -7.004472 7.000406 -7.000406 c 3.86589 -0.005435 7.000766 3.12944 6.999981 6.999982 z m 0 0" fill="none" stroke="#e01b24" stroke-linecap="round" stroke-linejoin="round" stroke-width="2" transform="matrix(0.402599 0.419923 -0.402599 0.419923 196.345488 -14.89)"/>
                        <path d="m 83.617188 50.617188 s 0.539062 1.011718 0.789062 2.535156 l -16.890625 17.621094 l -2.417969 -0.839844 z m 0 0" fill="url(#o)" fill-rule="evenodd"/>
                        <path d="m 63.25 72.71875 c -0.441406 0.464844 -0.441406 1.214844 0 1.679688 c 0.445312 0.464843 1.167969 0.464843 1.613281 0 c 0.445313 -0.464844 0.445313 -1.214844 0 -1.679688 c -0.445312 -0.464844 -1.167969 -0.464844 -1.613281 0 z m 0 0" fill="#3d3846"/>
                        <g clip-path="url(#s)">
                            <g mask="url(#t)">
                                <use transform="matrix(1 0 0 1 -8 -16)" xlink:href="#v"/>
                            </g>
                            <g mask="url(#w)">
                                <use transform="matrix(1 0 0 1 -8 -16)" xlink:href="#y"/>
                            </g>
                        </g>
                    </g>
                </g>
            </g>
        </mask>
        <mask id="C">
            <g filter="url(#a)">
                <rect fill-opacity="0.8" height="184.32" width="184.32" x="-28.16" y="-28.16"/>
            </g>
        </mask>
        <linearGradient id="D" gradientTransform="matrix(0 0.37 -0.98462 0 295.38501 -30.360001)" gradientUnits="userSpaceOnUse" x1="300" x2="428" y1="235" y2="235">
            <stop offset="0" stop-color="#f9f06b"/>
            <stop offset="1" stop-color="#f5c211"/>
        </linearGradient>
        <clipPath id="E">
            <rect height="128" width="128"/>
        </clipPath>
        <clipPath id="F">
            <rect height="128" width="128"/>
        </clipPath>
    </defs>
    <path d="m 42.136719 0.800781 l 69.546875 18.632813 c 4.265625 1.144531 6.800781 5.53125 5.65625 9.800781 l -22.777344 85 c -1.144531 4.269531 -5.53125 6.800781 -9.796875 5.65625 l -69.546875 -18.632813 c -4.269531 -1.144531 -6.800781 -5.53125 -5.65625 -9.800781 l 22.773438 -85 c 1.144531 -4.265625 5.53125 -6.800781 9.800781 -5.65625 z m 0 0" fill="#deddda"/>
    <path d="m 27.449219 61.347656 h 72 c 4.417969 0 8 3.582032 8 8 v 43 c 0 4.417969 -3.582031 8 -8 8 h -72 c -4.417969 0 -8 -3.582031 -8 -8 v -43 c 0 -4.417968 3.582031 -8 8 -8 z m 0 0" fill="#deddda"/>
    <path d="m 99.449219 120.347656 h -72 c -4.417969 0 -8 -3.582031 -8 -8 v -24 c 0 -4.417968 3.582031 -8 8 -8 h 72 c 4.417969 0 8 3.582032 8 8 v 24 c 0 4.417969 -3.582031 8 -8 8 z m 0 0" fill="url(#b)"/>
    <path d="m 99.449219 16.160156 v 79.835938 l 17.890625 -66.761719 c 1.144531 -4.28125 -1.375 -8.652344 -5.65625 -9.796875 z m 0 0" fill="url(#d)"/>
    <path d="m 27.4375 104.527344 v -79.839844 l -17.886719 66.765625 c -1.148437 4.28125 1.375 8.648437 5.65625 9.796875 z m 0 0" fill="url(#e)"/>
    <path d="m 27.449219 8.347656 h 72 c 4.417969 0 8 3.582032 8 8 v 88 c 0 4.417969 -3.582031 8 -8 8 h -72 c -4.417969 0 -8 -3.582031 -8 -8 v -88 c 0 -4.417968 3.582031 -8 8 -8 z m 0 0" fill="#f6f5f4"/>
    <path d="m 107.449219 107 c -0.082031 4.089844 -3.378907 7.347656 -7.492188 7.347656 h -0.5 v 1 h 0.5 c 3.226563 0 6.023438 -1.789062 7.464844 -4.429687 c 0.011719 -0.1875 0.027344 -0.378907 0.027344 -0.570313 z m -42 7.347656 l 34 1 v -1 z m 0 0" fill="#939290" fill-opacity="0.271654"/>
    <path d="m 65.636719 114.765625 l 14.082031 5.582031 c 13 5.855469 14.671875 -5.265625 14.671875 -5.582031 z m 0 0" fill-opacity="0.182575"/>
    <path d="m 107.449219 110 c -0.082031 4.089844 -3.378907 7.347656 -7.492188 7.347656 h -0.5 v 1 h 0.5 c 3.226563 0 6.023438 -1.789062 7.464844 -4.429687 c 0.011719 -0.1875 0.027344 -0.378907 0.027344 -0.570313 z m -42 7.347656 l 34 1 v -1 z m 0 0" fill="#939290" fill-opacity="0.271654"/>
    <path d="m 65.636719 114.765625 l 19.128906 5.125 c 4.097656 1.097656 8.269531 -1.171875 9.625 -5.125 z m 0 0" fill="#f6f5f4"/>
    <path d="m 19.449219 110 c 0.082031 4.089844 3.382812 7.347656 7.492187 7.347656 h 0.5 v 1 h -0.5 c -3.222656 0 -6.019531 -1.789062 -7.460937 -4.429687 c -0.015625 -0.1875 -0.03125 -0.378907 -0.03125 -0.570313 z m 42 7.347656 l -34 1 v -1 z m 0 0" fill="#908f8d" fill-opacity="0.271654"/>
    <path d="m 19.449219 107 c 0.082031 4.089844 3.382812 7.347656 7.492187 7.347656 h 0.5 v 1 h -0.5 c -3.222656 0 -6.019531 -1.789062 -7.460937 -4.429687 c -0.015625 -0.1875 -0.03125 -0.378907 -0.03125 -0.570313 z m 78 7.347656 l -70 1 v -1 z m 0 0" fill="#908f8d" fill-opacity="0.271654"/>
    <path d="m 79.449219 8.347656 l 26 26 c 2.042969 3.132813 2 6 2 6 v -24 c 0 -4.433594 -3.566407 -8 -8 -8 z m 0 0" fill="url(#f)"/>
    <path d="m 104.449219 35.621094 l -25 -25 v 20 c 0 4.433594 3.570312 8 8 8 h 15.796875 c 2.203125 0 4.5625 2.511718 4.203125 4 c -0.03125 -2.636719 -1.109375 -5.15625 -3 -7 z m 0 0" fill-opacity="0.211424"/>
    <path d="m 27.480469 8.339844 h 51.75 l 25.917969 26.078125 l 2.332031 5.507812 v 2.425781 h -83.941407 c -2.101562 0 -4.058593 1.308594 -4.058593 2.617188 v -32.128906 c 0 -2.484375 3.582031 -4.5 8 -4.5 z m 0 0" fill="url(#g)"/>
    <path d="m 104.449219 33.347656 l -25 -25 v 20 c 0 4.429688 3.570312 8 8 8 h 15.796875 c 2.203125 0 4.5625 2.507813 4.203125 4 c -0.03125 -2.640625 -1.109375 -5.160156 -3 -7 z m 0 0" fill="url(#h)"/>
    <path d="m 27.480469 8.339844 h 51.75 l 25.898437 26.105468 l 2.351563 5.488282 v 2.417968 h -83.941407 c -2.101562 0 -4.058593 1.308594 -4.058593 2.617188 v -32.128906 c 0 -2.484375 3.582031 -4.5 8 -4.5 z m 0 0" fill="url(#i)"/>
    <path d="m 32.542969 35.601562 h 9.941406 c 0.785156 0 1.417969 0.464844 1.417969 1.042969 c 0 0.574219 -0.632813 1.039063 -1.417969 1.039063 h -9.941406 c -0.785157 0 -1.421875 -0.464844 -1.421875 -1.039063 c 0 -0.578125 0.636718 -1.042969 1.421875 -1.042969 z m 0 0" fill="#faa197"/>
    <path d="m 33.25 29.359375 h 22.730469 c 1.179687 0 2.132812 0.699219 2.132812 1.5625 c 0 0.859375 -0.953125 1.558594 -2.132812 1.558594 h -22.730469 c -1.175781 0 -2.128906 -0.699219 -2.128906 -1.558594 c 0 -0.863281 0.953125 -1.5625 2.128906 -1.5625 z m 0 0" fill="#ffffff" fill-opacity="0.796078"/>
    <path d="m 48.015625 58.019531 h 31.632813 c 2.054687 0 3.722656 1.472657 3.722656 3.285157 v 31.199218 c 0 1.808594 -1.667969 3.28125 -3.722656 3.28125 h -31.632813 c -2.058594 0 -3.726563 -1.472656 -3.726563 -3.28125 v -31.199218 c 0 -1.8125 1.667969 -3.285157 3.726563 -3.285157 z m 0 0" fill="#99c1f1" fill-opacity="0.309804"/>
    <path d="m 68.690415 231.69487 c -6.762353 -6.762723 -17.399896 -7.403616 -24.901789 -1.925578 l 4.253834 4.251352 c 5.141282 -3.253763 11.974631 -2.64477 16.471033 1.853079 c 3.709533 3.709058 4.765596 9.007299 3.194813 13.638546 l -4.239043 -4.242652 l -4.176921 4.178853 l 11.486534 11.48677 l 11.486534 -11.48677 l -4.176921 -4.178853 l -4.366244 4.367351 c 1.476122 -6.24653 -0.174532 -13.084652 -5.03183 -17.942098 z m -29.238451 -2.087976 l -11.486534 11.48677 l 4.176921 4.175953 l 4.29229 -4.291951 c -1.416958 6.229129 0.272151 13.035352 5.105784 17.869598 c 6.756437 6.756923 17.352565 7.339817 24.848542 1.876279 l -4.203545 -4.204953 c -5.141282 3.256663 -11.974631 2.64477 -16.468076 -1.850179 c -3.709532 -3.709058 -4.768553 -9.007298 -3.19777 -13.638546 l 4.242001 4.239752 l 4.176921 -4.175953 z m 0 0" fill="#3584e4" stroke="url(#j)" stroke-width="3.68407" transform="matrix(1.3205 0 0 1.346998 -10.092413 -253.631584)"/>
    <path d="m 80.613281 58.460938 c -8.929687 -9.109376 -22.976562 -9.972657 -32.882812 -2.59375 l 5.617187 5.726562 c 6.789063 -4.382812 15.8125 -3.5625 21.75 2.496094 c 4.898438 4.996094 6.292969 12.132812 4.21875 18.371094 l -5.597656 -5.714844 l -5.515625 5.628906 l 15.167969 15.472656 l 15.167968 -15.472656 l -5.515624 -5.628906 l -5.765626 5.882812 c 1.949219 -8.414062 -0.230468 -17.625 -6.644531 -24.167968 z m -38.609375 -2.8125 l -15.167968 15.472656 l 5.515624 5.625 l 5.667969 -5.78125 c -1.871093 8.390625 0.359375 17.558594 6.742188 24.070312 c 8.921875 9.101563 22.914062 9.886719 32.8125 2.527344 l -5.550781 -5.664062 c -6.789063 4.386718 -15.8125 3.5625 -21.746094 -2.492188 c -4.898438 -4.996094 -6.296875 -12.132812 -4.222656 -18.371094 l 5.601562 5.710938 l 5.515625 -5.625 z m 0 0" fill="#3584e4"/>
    <path d="m 83.617188 50.621094 l -18.519532 19.3125 l -10.464844 10.917968 l 2.410157 2.519532 l 9.863281 -10.40625 h 1.691406 l 11.796875 -12.269532 c 6.441407 -6.71875 3.222657 -10.074218 3.222657 -10.074218 z m 0 0" fill="#9a9996" fill-rule="evenodd"/>
    <path d="m 268.056999 152.02781 c -0.004043 4.701705 -3.817154 8.514816 -8.518858 8.518858 c -4.701505 -0.005459 -8.515449 -3.819403 -8.516257 -8.516256 c -0.000608 -4.706356 3.812503 -8.519467 8.518859 -8.518859 c 4.696853 0.000809 8.510797 3.814752 8.516256 8.516257 z m 0 0" fill="none" stroke="#c01c28" stroke-linecap="round" stroke-linejoin="round" stroke-width="5" transform="matrix(0.402599 0.419923 -0.402599 0.419923 24.771092 -73.125922)"/>
    <path d="m 62.347656 86.601562 h 3.414063 v -42.757812 l -0.804688 -0.839844 s -3.75 3.003906 -3.75 10.339844 l 0.003907 16.148438 l 0.054687 1.617187 l 1.082031 1.238281 z m 0 0" fill="#9a9996" fill-rule="evenodd"/>
    <path d="m 68.039062 92.539062 c -3.753906 0 -6.832031 3.210938 -6.832031 7.125 c 0 3.914063 3.078125 7.128907 6.832031 7.128907 c 3.753907 0 6.832032 -3.214844 6.832032 -7.128907 c 0 -3.914062 -3.078125 -7.125 -6.832032 -7.125 z m 0 1.1875 c 1.90625 0 4.554688 1.574219 4.554688 3.5625 c 0 1.988282 -2.648438 5.9375 -4.554688 5.9375 s -4.554687 -3.949218 -4.554687 -5.9375 c 0 -1.988281 2.648437 -3.5625 4.554687 -3.5625 z m 0 0" fill="url(#k)"/>
    <path d="m 62.347656 85.433594 h 3.417969 v -42.757813 s -4.554687 0 -4.554687 9.503907 l 0.027343 17.375 l 1.195313 1.25 z m 0 0" fill="#9a9996" fill-rule="evenodd"/>
    <path d="m 61.210938 98.5 v -14.253906 c 0 -1.1875 1.136718 -1.1875 1.136718 -1.1875 h 3.4375 s 1.09375 -0.078125 1.390625 0.863281 l 2.503907 7.878906 z m 0 0" fill="#ed333b" fill-rule="evenodd"/>
    <path d="m -56.53288 312.033148 c 0 5.255598 -4.260529 9.517961 -9.515867 9.517961 c -5.255339 0 -9.515868 -4.262363 -9.515868 -9.517961 c 0 -5.255599 4.260529 -9.517962 9.515868 -9.517962 c 5.255338 0 9.515867 4.262363 9.515867 9.517962 z m 0 0" fill="none" stroke="#ed333b" stroke-linecap="round" stroke-linejoin="round" stroke-width="5" transform="matrix(-0.569362 0 0 0.593861 30.464697 -86.784709)"/>
    <path d="m -59.002752 312.000259 c 0 3.8677 -3.128504 6.998694 -6.99797 6.998694 c -3.862605 0 -6.99797 -3.130994 -6.99797 -6.998694 s 3.135365 -6.998695 6.99797 -6.998695 c 3.869466 0 6.99797 3.130995 6.99797 6.998695 z m 0 0" fill="none" stroke="#e01b24" stroke-linecap="round" stroke-linejoin="round" stroke-width="2" transform="matrix(-0.569362 0 0 0.593861 30.464697 -86.784709)"/>
    <path d="m 65.765625 42.675781 s -1.066406 0.320313 -2.277344 1.210938 v 24.921875 l 2.277344 1.1875 z m 0 0" fill="url(#m)" fill-rule="evenodd"/>
    <path d="m 226.315996 169.666551 c 0.000609 4.706356 -3.812502 8.519467 -8.518858 8.518858 c -4.696854 -0.000808 -8.510797 -3.814752 -8.516257 -8.516256 c 0.004043 -4.701705 3.817154 -8.514816 8.518859 -8.518859 c 4.701504 0.00546 8.515448 3.819403 8.516256 8.516257 z m 0 0" fill="none" stroke="#c01c28" stroke-linecap="round" stroke-linejoin="round" stroke-width="5" transform="matrix(0.402599 0.419923 -0.402599 0.419923 24.771092 -73.125922)"/>
    <path d="m 57.03125 84.621094 l -2.414062 -2.519532 l 28.941406 -30.457031 l 0.042968 0.222657 s 3.222657 3.359374 -3.21875 10.078124 l -11.800781 12.269532 h -1.691406 z m 0 0" fill="#77767b" fill-rule="evenodd"/>
    <path d="m 55.421875 79.582031 l -7.246094 4.199219 l 0.007813 0.140625 c -2.664063 -2.035156 -6.460938 -1.808594 -8.867188 0.699219 c -2.652344 2.769531 -2.652344 7.3125 0 10.078125 c 2.65625 2.769531 7.011719 2.769531 9.664063 0 l 9.660156 -10.078125 c 0.136719 -0.140625 0.222656 -0.289063 0.292969 -0.445313 v -1.652343 z m -11.273437 4.128907 c 0.871093 0 1.742187 0.351562 2.417968 1.054687 c 1.347656 1.40625 1.347656 6.007813 0 7.414063 c -1.351562 1.40625 -3.484375 1.40625 -4.832031 0 c -1.351563 -1.40625 -1.351563 -6.007813 0 -7.414063 c 0.671875 -0.703125 1.542969 -1.054687 2.414063 -1.054687 z m 0 0" fill="url(#n)"/>
    <path d="m 57.046875 83.371094 l -2.417969 -2.519532 l 28.988282 -30.234374 s 3.222656 3.359374 -3.21875 10.078124 l -11.800782 12.269532 h -1.695312 z m 0 0" fill="#9a9996" fill-rule="evenodd"/>
    <path d="m 48.992188 93.449219 l 9.664062 -10.078125 c 0.804688 -0.839844 0 -1.679688 0 -1.679688 l -2.429688 -2.535156 s -0.71875 -0.863281 -1.566406 -0.417969 l -7.113281 3.726563 z m 0 0" fill="#ed333b" fill-rule="evenodd"/>
    <path d="m -56.535363 312.03088 c -0.001497 5.257298 -4.260927 9.516727 -9.518224 9.518224 c -5.252446 -0.003354 -9.5129 -4.263808 -9.511603 -9.511603 c 0.001497 -5.257297 4.260926 -9.516726 9.518224 -9.518224 c 5.252646 -0.006148 9.5131 4.254306 9.511603 9.511603 z m 0 0" fill="none" stroke="#ed333b" stroke-linecap="round" stroke-linejoin="round" stroke-width="5" transform="matrix(0.402599 0.419923 -0.402599 0.419923 196.345488 -14.89)"/>
    <path d="m -58.999545 312.002045 c -0.000584 3.861039 -3.134515 6.99497 -7.000406 7.000406 c -3.86569 -0.004067 -7.000566 -3.138942 -6.999981 -6.999982 c 0.000784 -3.870541 3.134715 -7.004472 7.000406 -7.000406 c 3.86589 -0.005435 7.000766 3.12944 6.999981 6.999982 z m 0 0" fill="none" stroke="#e01b24" stroke-linecap="round" stroke-linejoin="round" stroke-width="2" transform="matrix(0.402599 0.419923 -0.402599 0.419923 196.345488 -14.89)"/>
    <path d="m 83.617188 50.617188 s 0.539062 1.011718 0.789062 2.535156 l -16.890625 17.621094 l -2.417969 -0.839844 z m 0 0" fill="url(#o)" fill-rule="evenodd"/>
    <path d="m 63.25 72.71875 c -0.441406 0.464844 -0.441406 1.214844 0 1.679688 c 0.445312 0.464843 1.167969 0.464843 1.613281 0 c 0.445313 -0.464844 0.445313 -1.214844 0 -1.679688 c -0.445312 -0.464844 -1.167969 -0.464844 -1.613281 0 z m 0 0" fill="#3d3846"/>
    <g mask="url(#p)">
        <use transform="matrix(1 0 0 1 -8 -16)" xlink:href="#v"/>
    </g>
    <g mask="url(#q)">
        <use transform="matrix(1 0 0 1 -8 -16)" xlink:href="#y"/>
    </g>
    <g mask="url(#B)">
        <g clip-path="url(#F)">
            <g mask="url(#C)">
                <g clip-path="url(#E)">
                    <path d="m 128 80.640625 v 47.359375 h -128 v -47.359375 z m 0 0" fill="url(#D)"/>
                    <path d="m 13.308594 80.640625 l 47.355468 47.359375 h 21.214844 l -47.359375 -47.359375 z m 42.421875 0 l 47.363281 47.359375 h 21.214844 l -47.363282 -47.359375 z m 42.429687 0 l 29.839844 29.839844 v -21.210938 l -8.628906 -8.628906 z m -98.160156 7.90625 v 21.214844 l 18.238281 18.238281 h 21.214844 z m 0 0"/>
                </g>
            </g>
        </g>
    </g>
</svg>
