<?xml version="1.0" encoding="UTF-8"?>
<svg height="128px" viewBox="0 0 128 128" width="128px" xmlns="http://www.w3.org/2000/svg" xmlns:xlink="http://www.w3.org/1999/xlink">
    <filter id="a" height="100%" width="100%" x="0%" y="0%">
        <feColorMatrix color-interpolation-filters="sRGB" values="0 0 0 0 1 0 0 0 0 1 0 0 0 0 1 0 0 0 1 0"/>
    </filter>
    <linearGradient id="b" gradientTransform="matrix(-1 0 0 -1 135.45018 -171.653823)" gradientUnits="userSpaceOnUse" x1="27.99999" x2="115.999992" y1="-274" y2="-274">
        <stop offset="0" stop-color="#c0bfbc"/>
        <stop offset="0.0454545" stop-color="#f6f5f4"/>
        <stop offset="0.0909091" stop-color="#deddda"/>
        <stop offset="0.909091" stop-color="#deddda"/>
        <stop offset="0.954545" stop-color="#f6f5f4"/>
        <stop offset="1" stop-color="#c0bfbc"/>
    </linearGradient>
    <linearGradient id="c" gradientUnits="userSpaceOnUse">
        <stop offset="0" stop-opacity="0.155304"/>
        <stop offset="1" stop-opacity="0"/>
    </linearGradient>
    <linearGradient id="d" gradientTransform="matrix(0.965926 0.258819 -0.258819 0.965926 -4.549807 -191.65382)" x1="167.194427" x2="171.058136" xlink:href="#c" y1="191.243362" y2="190.208084"/>
    <linearGradient id="e" gradientTransform="matrix(-0.965926 -0.258819 0.258819 -0.965926 131.438809 312.339343)" x1="167.194427" x2="171.058136" xlink:href="#c" y1="191.243362" y2="190.208084"/>
    <linearGradient id="f" gradientUnits="userSpaceOnUse" x1="96.288572" x2="101.068601" y1="25.184555" y2="20.404526">
        <stop offset="0" stop-color="#deddda"/>
        <stop offset="1" stop-color="#f3f2ef"/>
    </linearGradient>
    <linearGradient id="g" gradientTransform="matrix(2.590207 0 0 1.014429 -63.472397 263.592072)" gradientUnits="userSpaceOnUse" x1="32.025879" x2="50.261204" y1="-252" y2="-236.686462">
        <stop offset="0" stop-color="#e66100"/>
        <stop offset="1" stop-color="#ed333b"/>
    </linearGradient>
    <linearGradient id="h" gradientUnits="userSpaceOnUse" x1="84.094564" x2="94.720884" y1="35.615448" y2="24.98912">
        <stop offset="0" stop-color="#ffffff"/>
        <stop offset="0.342347" stop-color="#ececec"/>
        <stop offset="0.7" stop-color="#e8e8e8"/>
        <stop offset="1" stop-color="#ffffff"/>
    </linearGradient>
    <linearGradient id="i" gradientTransform="matrix(1.375 0 0 0.772987 -30.018759 -152.439592)" gradientUnits="userSpaceOnUse" x1="36" x2="41.090908" y1="241" y2="241">
        <stop offset="0" stop-color="#ff7800" stop-opacity="0"/>
        <stop offset="0.240073" stop-color="#f5c211" stop-opacity="0.603922"/>
        <stop offset="0.375534" stop-color="#f5c211" stop-opacity="0.443137"/>
        <stop offset="1" stop-color="#ff7800" stop-opacity="0"/>
    </linearGradient>
    <linearGradient id="j" gradientTransform="matrix(0.485665 0 0 0.506562 91.708029 -64.259675)" gradientUnits="userSpaceOnUse" x1="-78" x2="-54" y1="312" y2="312">
        <stop offset="0" stop-color="#a51d2d"/>
        <stop offset="0.194233" stop-color="#f66151"/>
        <stop offset="0.5" stop-color="#c01c28"/>
        <stop offset="0.682316" stop-color="#e01b24"/>
        <stop offset="1" stop-color="#a51d2d"/>
    </linearGradient>
    <linearGradient id="k" gradientUnits="userSpaceOnUse">
        <stop offset="0" stop-color="#deddda" stop-opacity="0"/>
        <stop offset="1" stop-color="#c0bfbc"/>
    </linearGradient>
    <linearGradient id="l" gradientTransform="matrix(0.485665 0 0 0.506562 26.631528 21.874943)" x1="60" x2="64" xlink:href="#k" y1="62" y2="62"/>
    <linearGradient id="m" gradientTransform="matrix(0.485665 0 0 0.506562 22.746214 36.419945)" gradientUnits="userSpaceOnUse" x1="22.052956" x2="60" y1="93.909065" y2="93.909065">
        <stop offset="0" stop-color="#a51d2d"/>
        <stop offset="0.131939" stop-color="#f66151"/>
        <stop offset="0.298927" stop-color="#c01c28"/>
        <stop offset="0.459862" stop-color="#ed333b"/>
        <stop offset="0.592599" stop-color="#a51d2d"/>
        <stop offset="1" stop-color="#a51d2d"/>
    </linearGradient>
    <linearGradient id="n" gradientTransform="matrix(-0.343417 -0.358194 -0.343417 0.358194 110.718101 58.398004)" x1="60" x2="64" xlink:href="#k" y1="62" y2="62"/>
    <mask id="o">
        <g filter="url(#a)">
            <rect fill-opacity="0.2" height="153.6" width="153.6" x="-12.8" y="-12.8"/>
        </g>
    </mask>
    <clipPath id="p">
        <rect height="152" width="192"/>
    </clipPath>
    <mask id="q">
        <g filter="url(#a)">
            <rect fill-opacity="0.2" height="153.6" width="153.6" x="-12.8" y="-12.8"/>
        </g>
    </mask>
    <clipPath id="r">
        <rect height="152" width="192"/>
    </clipPath>
    <path d="m 42.136719 0.800781 l 69.546875 18.632813 c 4.265625 1.144531 6.800781 5.53125 5.65625 9.800781 l -22.777344 85 c -1.144531 4.269531 -5.53125 6.800781 -9.796875 5.65625 l -69.546875 -18.632813 c -4.269531 -1.144531 -6.800781 -5.53125 -5.65625 -9.800781 l 22.773438 -85 c 1.144531 -4.265625 5.53125 -6.800781 9.800781 -5.65625 z m 0 0" fill="#deddda"/>
    <path d="m 27.449219 61.347656 h 72 c 4.417969 0 8 3.582032 8 8 v 43 c 0 4.417969 -3.582031 8 -8 8 h -72 c -4.417969 0 -8 -3.582031 -8 -8 v -43 c 0 -4.417968 3.582031 -8 8 -8 z m 0 0" fill="#deddda"/>
    <path d="m 99.449219 120.347656 h -72 c -4.417969 0 -8 -3.582031 -8 -8 v -24 c 0 -4.417968 3.582031 -8 8 -8 h 72 c 4.417969 0 8 3.582032 8 8 v 24 c 0 4.417969 -3.582031 8 -8 8 z m 0 0" fill="url(#b)"/>
    <path d="m 99.449219 16.160156 v 79.835938 l 17.890625 -66.761719 c 1.144531 -4.28125 -1.375 -8.652344 -5.65625 -9.796875 z m 0 0" fill="url(#d)"/>
    <path d="m 27.4375 104.527344 v -79.839844 l -17.886719 66.765625 c -1.148437 4.28125 1.375 8.648437 5.65625 9.796875 z m 0 0" fill="url(#e)"/>
    <path d="m 27.449219 8.347656 h 72 c 4.417969 0 8 3.582032 8 8 v 88 c 0 4.417969 -3.582031 8 -8 8 h -72 c -4.417969 0 -8 -3.582031 -8 -8 v -88 c 0 -4.417968 3.582031 -8 8 -8 z m 0 0" fill="#f6f5f4"/>
    <path d="m 107.449219 107 c -0.082031 4.089844 -3.378907 7.347656 -7.492188 7.347656 h -0.5 v 1 h 0.5 c 3.226563 0 6.023438 -1.789062 7.464844 -4.429687 c 0.011719 -0.1875 0.027344 -0.378907 0.027344 -0.570313 z m -42 7.347656 l 34 1 v -1 z m 0 0" fill="#939290" fill-opacity="0.271654"/>
    <path d="m 65.636719 114.765625 l 14.082031 5.582031 c 13 5.855469 14.671875 -5.265625 14.671875 -5.582031 z m 0 0" fill-opacity="0.182575"/>
    <path d="m 107.449219 110 c -0.082031 4.089844 -3.378907 7.347656 -7.492188 7.347656 h -0.5 v 1 h 0.5 c 3.226563 0 6.023438 -1.789062 7.464844 -4.429687 c 0.011719 -0.1875 0.027344 -0.378907 0.027344 -0.570313 z m -42 7.347656 l 34 1 v -1 z m 0 0" fill="#939290" fill-opacity="0.271654"/>
    <path d="m 65.636719 114.765625 l 19.128906 5.125 c 4.097656 1.097656 8.269531 -1.171875 9.625 -5.125 z m 0 0" fill="#f6f5f4"/>
    <path d="m 19.449219 110 c 0.082031 4.089844 3.382812 7.347656 7.492187 7.347656 h 0.5 v 1 h -0.5 c -3.222656 0 -6.019531 -1.789062 -7.460937 -4.429687 c -0.015625 -0.1875 -0.03125 -0.378907 -0.03125 -0.570313 z m 42 7.347656 l -34 1 v -1 z m 0 0" fill="#908f8d" fill-opacity="0.271654"/>
    <path d="m 19.449219 107 c 0.082031 4.089844 3.382812 7.347656 7.492187 7.347656 h 0.5 v 1 h -0.5 c -3.222656 0 -6.019531 -1.789062 -7.460937 -4.429687 c -0.015625 -0.1875 -0.03125 -0.378907 -0.03125 -0.570313 z m 78 7.347656 l -70 1 v -1 z m 0 0" fill="#908f8d" fill-opacity="0.271654"/>
    <path d="m 79.449219 8.347656 l 26 26 c 2.042969 3.132813 2 6 2 6 v -24 c 0 -4.433594 -3.566407 -8 -8 -8 z m 0 0" fill="url(#f)"/>
    <path d="m 104.449219 35.621094 l -25 -25 v 20 c 0 4.433594 3.570312 8 8 8 h 15.796875 c 2.203125 0 4.5625 2.511718 4.203125 4 c -0.03125 -2.636719 -1.109375 -5.15625 -3 -7 z m 0 0" fill-opacity="0.211424"/>
    <path d="m 27.480469 8.339844 h 51.75 l 25.917969 26.078125 l 2.332031 5.507812 v 2.425781 h -83.941407 c -2.101562 0 -4.058593 1.308594 -4.058593 2.617188 v -32.128906 c 0 -2.484375 3.582031 -4.5 8 -4.5 z m 0 0" fill="url(#g)"/>
    <path d="m 104.449219 33.347656 l -25 -25 v 20 c 0 4.429688 3.570312 8 8 8 h 15.796875 c 2.203125 0 4.5625 2.507813 4.203125 4 c -0.03125 -2.640625 -1.109375 -5.160156 -3 -7 z m 0 0" fill="url(#h)"/>
    <path d="m 27.480469 8.339844 h 51.75 l 25.898437 26.105468 l 2.351563 5.488282 v 2.417968 h -83.941407 c -2.101562 0 -4.058593 1.308594 -4.058593 2.617188 v -32.128906 c 0 -2.484375 3.582031 -4.5 8 -4.5 z m 0 0" fill="url(#i)"/>
    <path d="m 32.542969 35.601562 h 9.941406 c 0.785156 0 1.417969 0.464844 1.417969 1.042969 c 0 0.574219 -0.632813 1.039063 -1.417969 1.039063 h -9.941406 c -0.785157 0 -1.421875 -0.464844 -1.421875 -1.039063 c 0 -0.578125 0.636718 -1.042969 1.421875 -1.042969 z m 0 0" fill="#faa197"/>
    <path d="m 33.25 29.359375 h 22.730469 c 1.179687 0 2.132812 0.699219 2.132812 1.5625 c 0 0.859375 -0.953125 1.558594 -2.132812 1.558594 h -22.730469 c -1.175781 0 -2.128906 -0.699219 -2.128906 -1.558594 c 0 -0.863281 0.953125 -1.5625 2.128906 -1.5625 z m 0 0" fill="#ffffff" fill-opacity="0.796078"/>
    <path d="m 82.476562 84.796875 l 9.011719 2.574219 c 0.660157 0.191406 1.003907 1.023437 0.765625 1.859375 l -2.375 8.3125 c -0.238281 0.835937 -0.96875 1.363281 -1.632812 1.171875 l -9.011719 -2.574219 c -0.664063 -0.191406 -1.003906 -1.019531 -0.765625 -1.859375 l 2.375 -8.3125 c 0.238281 -0.835938 0.96875 -1.359375 1.632812 -1.171875 z m 0 0" fill="#f8dc7a"/>
    <path d="m 97.731934 267.448746 c 0.247556 -0.426493 0.476436 -0.870454 0.677608 -1.315619 l -3.719819 -3.201442 c 0.233083 -0.732499 0.392074 -1.484873 0.469743 -2.250495 l 4.650873 -1.297138 c -0.019326 -1.025241 -0.205507 -2.011922 -0.423013 -3.012455 l -4.82444 -0.427453 c -0.2446 -0.728259 -0.566904 -1.425191 -0.954263 -2.094411 l 2.92013 -3.762574 c -0.621088 -0.81679 -1.326505 -1.577555 -2.093362 -2.266032 l -4.071935 2.445236 c -0.312041 -0.230092 -0.631912 -0.439703 -0.96624 -0.636061 c -0.343965 -0.198164 -0.675881 -0.354163 -1.032495 -0.516787 l 0.084102 -4.749127 c -0.999355 -0.321017 -1.998104 -0.560112 -3.013111 -0.680538 l -1.800285 4.409471 c -0.771642 -0.002975 -1.542678 0.075974 -2.290218 0.221182 l -2.784368 -3.9659 c -0.97282 0.314487 -1.918532 0.644031 -2.817252 1.138022 l 1.209796 4.680393 c -0.62163 0.442174 -1.193861 0.961448 -1.719706 1.53132 l -4.636557 -1.621368 c -0.568001 0.805403 -1.066123 1.663811 -1.475694 2.560767 l 3.721024 3.205658 c -0.231879 0.736716 -0.398097 1.495716 -0.469744 2.250495 l -4.656294 1.294126 c 0.019326 1.025241 0.206713 2.016139 0.42723 3.011251 l 4.82444 0.427452 c 0.244599 0.72826 0.563892 1.430613 0.950047 2.095616 l -2.915914 3.761369 c 0.622292 0.821007 1.322289 1.578761 2.094567 2.270249 l 4.071934 -2.445236 c 0.31927 0.223466 0.616853 0.434885 0.96624 0.636061 c 0.343966 0.198165 0.675882 0.354164 1.031291 0.512571 l -0.082898 4.753343 c 0.981284 0.321621 1.990273 0.548667 3.013112 0.680538 l 1.800284 -4.409471 c 0.771643 0.002975 1.538462 -0.074769 2.290219 -0.221182 l 2.783163 3.961684 c 0.969808 -0.309065 1.918532 -0.644032 2.817251 -1.138023 l -1.205578 -4.681598 c 0.624641 -0.447595 1.198076 -0.962653 1.715489 -1.530115 l 4.636557 1.621368 c 0.286711 -0.401195 0.551736 -0.814437 0.798086 -1.245147 z m -7.979881 -4.606575 c -1.866001 3.237854 -6.060284 4.313296 -9.365607 2.402724 c -3.309539 -1.909368 -4.474734 -6.082564 -2.607529 -9.316202 c 1.86841 -3.229422 6.059682 -4.299442 9.3638 -2.393086 s 4.472324 6.07413 2.609336 9.306564 z m 0 0" fill="#986a44" stroke="#f8dc7a" stroke-width="3.59433" transform="matrix(0.856465 0.244749 -0.244749 0.856465 76.546852 -151.320032)"/>
    <path d="m 94.792969 101.660156 c 0.316406 -0.304687 0.621093 -0.628906 0.902343 -0.960937 l -2.402343 -3.652344 c 0.378906 -0.570313 0.699219 -1.175781 0.953125 -1.8125 l 4.300781 0.027344 c 0.234375 -0.882813 0.316406 -1.773438 0.375 -2.683594 l -4.027344 -1.546875 c -0.03125 -0.683594 -0.136719 -1.359375 -0.304687 -2.027344 l 3.421875 -2.507812 c -0.332031 -0.851563 -0.75 -1.675782 -1.238281 -2.453125 l -4.085938 1.097656 c -0.210938 -0.273437 -0.433594 -0.53125 -0.671875 -0.78125 c -0.246094 -0.253906 -0.492187 -0.46875 -0.757813 -0.695313 l 1.234376 -4.046874 c -0.777344 -0.519532 -1.574219 -0.96875 -2.414063 -1.320313 l -2.621094 3.335937 c -0.660156 -0.191406 -1.339843 -0.3125 -2.015625 -0.371093 l -1.414062 -4.078125 c -0.910156 0.03125 -1.800782 0.082031 -2.691406 0.285156 l -0.109376 4.304688 c -0.640624 0.226562 -1.257812 0.53125 -1.847656 0.890624 l -3.574218 -2.523437 c -0.683594 0.550781 -1.320313 1.164063 -1.890626 1.832031 l 2.402344 3.65625 c -0.378906 0.574219 -0.707031 1.183594 -0.953125 1.8125 l -4.304687 -0.03125 c -0.234375 0.882813 -0.316406 1.777344 -0.371094 2.683594 l 4.027344 1.546875 c 0.03125 0.683594 0.132812 1.363281 0.300781 2.027344 l -3.417969 2.507812 c 0.332032 0.855469 0.746094 1.675781 1.238282 2.457031 l 4.085937 -1.097656 c 0.21875 0.269532 0.421875 0.523438 0.671875 0.78125 c 0.246094 0.253906 0.492188 0.46875 0.757812 0.691406 l -1.234374 4.050782 c 0.761718 0.515625 1.570312 0.957031 2.414062 1.320312 l 2.621094 -3.335937 c 0.660156 0.191406 1.335937 0.3125 2.015625 0.371093 l 1.414062 4.074219 c 0.90625 -0.027343 1.800781 -0.082031 2.691407 -0.285156 l 0.113281 -4.304687 c 0.644531 -0.230469 1.261719 -0.53125 1.84375 -0.890626 l 3.574219 2.523438 c 0.34375 -0.273438 0.671874 -0.5625 0.988281 -0.871094 z m -5.707031 -5.898437 c -2.390626 2.316406 -6.246094 2.210937 -8.609376 -0.234375 c -2.367187 -2.445313 -2.34375 -6.304688 0.046876 -8.617188 c 2.390624 -2.308594 6.242187 -2.199218 8.605468 0.242188 c 2.363282 2.441406 2.34375 6.296875 -0.042968 8.609375 z m 0 0" fill="#986a44"/>
    <path d="m 42.574219 58.265625 h 26.980469 c 1.753906 0 3.179687 1.253906 3.179687 2.800781 v 26.609375 c 0 1.546875 -1.425781 2.800781 -3.179687 2.800781 h -26.980469 c -1.757813 0 -3.179688 -1.253906 -3.179688 -2.800781 v -26.609375 c 0 -1.546875 1.421875 -2.800781 3.179688 -2.800781 z m 0 0" fill="#afcff3"/>
    <path d="m 68.689859 231.69494 c -6.762509 -6.762069 -17.402191 -7.404618 -24.899906 -1.924249 l 4.251711 4.249666 c 5.142975 -3.253544 11.974843 -2.641593 16.469311 1.852854 c 3.710711 3.709108 4.768437 9.009291 3.197454 13.636328 l -4.241308 -4.239467 l -4.175416 4.178271 l 11.485863 11.487697 l 11.485862 -11.487697 l -4.175416 -4.178271 l -4.366154 4.368656 c 1.47388 -6.248708 -0.173398 -13.085571 -5.032001 -17.943788 z m -29.238316 -2.087436 l -11.485863 11.487696 l 4.175416 4.174872 l 4.293327 -4.293862 c -1.414925 6.23171 0.273968 13.037974 5.104828 17.868994 c 6.759041 6.758669 17.35364 7.343423 24.851355 1.876653 l -4.20316 -4.20207 c -5.142975 3.256944 -11.974843 2.644992 -16.472779 -1.849454 c -3.707243 -3.712508 -4.764968 -9.009292 -3.193985 -13.639728 l 4.241307 4.239467 l 4.175416 -4.174872 z m 0 0" fill="#3584e4" stroke="#afcff3" stroke-width="5.90713" transform="matrix(1.126385 0 0 1.148987 -6.992303 -207.573944)"/>
    <path d="m 70.378906 58.640625 c -7.617187 -7.769531 -19.601562 -8.507813 -28.046875 -2.210937 l 4.789063 4.882812 c 5.792968 -3.738281 13.488281 -3.035156 18.550781 2.128906 c 4.179687 4.261719 5.371094 10.351563 3.601563 15.667969 l -4.777344 -4.871094 l -4.703125 4.800781 l 12.9375 13.199219 l 12.9375 -13.199219 l -4.703125 -4.800781 l -4.917969 5.019531 c 1.660156 -7.179687 -0.195313 -15.035156 -5.667969 -20.617187 z m -32.933594 -2.398437 l -12.9375 13.199218 l 4.703126 4.796875 l 4.835937 -4.933593 c -1.59375 7.160156 0.308594 14.980468 5.75 20.53125 c 7.613281 7.765624 19.546875 8.4375 27.992187 2.15625 l -4.734374 -4.828126 c -5.792969 3.742188 -13.488282 3.039063 -18.554688 -2.125 c -4.175781 -4.265624 -5.367188 -10.351562 -3.597656 -15.671874 l 4.777344 4.871093 l 4.703124 -4.796875 z m 0 0" fill="#3584e4"/>
    <path d="m 72.941406 51.953125 l -15.796875 16.472656 l -8.925781 9.3125 l 2.058594 2.148438 l 8.410156 -8.875 h 1.445312 l 10.0625 -10.464844 c 5.492188 -5.730469 2.746094 -8.59375 2.746094 -8.59375 z m 0 0" fill="#9a9996" fill-rule="evenodd"/>
    <path d="m 268.050645 152.029444 c 0.001248 4.698984 -3.809264 8.509497 -8.513936 8.513936 c -4.698984 -0.001248 -8.510425 -3.81269 -8.517126 -8.517127 c 0.004439 -4.704671 3.814951 -8.515183 8.513935 -8.513935 c 4.710124 0.001013 8.521566 3.812455 8.517127 8.517126 z m 0 0" fill="none" stroke="#c01c28" stroke-linecap="round" stroke-linejoin="round" stroke-width="5" transform="matrix(0.343417 0.358194 -0.343417 0.358194 22.746219 -53.602863)"/>
    <path d="m 54.796875 82.644531 h 2.914063 v -36.472656 l -0.6875 -0.71875 s -3.195313 2.566406 -3.195313 8.824219 v 13.773437 l 0.046875 1.378907 l 0.921875 1.054687 z m 0 0" fill="#9a9996" fill-rule="evenodd"/>
    <path d="m 59.652344 87.710938 c -3.199219 0 -5.824219 2.738281 -5.824219 6.078124 c 0 3.339844 2.625 6.078126 5.824219 6.078126 c 3.203125 0 5.828125 -2.738282 5.828125 -6.078126 c 0 -3.339843 -2.625 -6.078124 -5.828125 -6.078124 z m 0 1.011718 c 1.628906 0 3.886718 1.34375 3.886718 3.039063 c 0 1.695312 -2.257812 5.066406 -3.886718 5.066406 c -1.625 0 -3.882813 -3.371094 -3.882813 -5.066406 c 0 -1.695313 2.257813 -3.039063 3.882813 -3.039063 z m 0 0" fill="url(#j)"/>
    <path d="m 54.800781 81.648438 h 2.914063 v -36.472657 s -3.886719 0 -3.886719 8.105469 l 0.023437 14.824219 l 1.023438 1.0625 z m 0 0" fill="#9a9996" fill-rule="evenodd"/>
    <path d="m 53.828125 92.792969 v -12.15625 c 0 -1.011719 0.972656 -1.011719 0.972656 -1.011719 h 2.929688 s 0.933593 -0.070312 1.1875 0.734375 l 2.136719 6.71875 z m 0 0" fill="#ed333b" fill-rule="evenodd"/>
    <path d="m -56.532298 312.037153 c 0 5.251389 -4.262844 9.515733 -9.514989 9.515733 c -5.260189 0 -9.51499 -4.264344 -9.51499 -9.515733 c 0 -5.2591 4.254801 -9.515732 9.51499 -9.515732 c 5.252145 0 9.514989 4.256632 9.514989 9.515732 z m 0 0" fill="none" stroke="#ed333b" stroke-linecap="round" stroke-linejoin="round" stroke-width="5" transform="matrix(-0.485665 0 0 0.506562 27.602857 -65.25379)"/>
    <path d="m -59.00153 311.998597 c 0 3.871068 -3.128767 7.001852 -6.997499 7.001852 s -6.997498 -3.130784 -6.997498 -7.001852 c 0 -3.863357 3.128766 -7.001852 6.997498 -7.001852 s 6.997499 3.138495 6.997499 7.001852 z m 0 0" fill="none" stroke="#e01b24" stroke-linecap="round" stroke-linejoin="round" stroke-width="2" transform="matrix(-0.485665 0 0 0.506562 27.602857 -65.25379)"/>
    <path d="m 57.714844 45.175781 s -0.910156 0.273438 -1.945313 1.03125 v 21.257813 l 1.945313 1.015625 z m 0 0" fill="url(#l)" fill-rule="evenodd"/>
    <path d="m 226.312293 169.666836 c 0.006701 4.704437 -3.809498 8.520636 -8.513935 8.513935 c -4.704672 0.004439 -8.516113 -3.807002 -8.511674 -8.511673 c -0.006701 -4.704437 3.809499 -8.520637 8.513936 -8.513936 c 4.704671 -0.004439 8.516112 3.807002 8.511673 8.511674 z m 0 0" fill="none" stroke="#c01c28" stroke-linecap="round" stroke-linejoin="round" stroke-width="5" transform="matrix(0.343417 0.358194 -0.343417 0.358194 22.746219 -53.602863)"/>
    <path d="m 50.265625 80.957031 l -2.0625 -2.152343 l 24.691406 -25.980469 l 0.035157 0.191406 s 2.746093 2.867187 -2.746094 8.597656 l -10.066406 10.464844 h -1.445313 z m 0 0" fill="#77767b" fill-rule="evenodd"/>
    <path d="m 48.890625 76.65625 l -6.179687 3.582031 l 0.007812 0.121094 c -2.273438 -1.738281 -5.511719 -1.542969 -7.5625 0.597656 c -2.265625 2.359375 -2.265625 6.234375 0 8.59375 c 2.261719 2.363281 5.976562 2.363281 8.238281 0 l 8.242188 -8.59375 c 0.117187 -0.121093 0.191406 -0.25 0.25 -0.382812 v -1.40625 z m -9.617187 3.523438 c 0.746093 0 1.488281 0.300781 2.0625 0.898437 c 1.152343 1.199219 1.152343 5.125 0 6.324219 c -1.148438 1.199218 -2.972657 1.199218 -4.121094 0 c -1.148438 -1.199219 -1.148438 -5.125 0 -6.324219 c 0.574218 -0.597656 1.316406 -0.898437 2.058594 -0.898437 z m 0 0" fill="url(#m)"/>
    <path d="m 50.277344 79.890625 l -2.0625 -2.148437 l 24.726562 -25.792969 s 2.75 2.867187 -2.746094 8.597656 l -10.066406 10.464844 h -1.445312 z m 0 0" fill="#9a9996" fill-rule="evenodd"/>
    <path d="m 43.410156 88.484375 l 8.242188 -8.59375 c 0.683594 -0.71875 0 -1.433594 0 -1.433594 l -2.074219 -2.164062 s -0.613281 -0.734375 -1.339844 -0.355469 l -6.066406 3.179688 z m 0 0" fill="#ed333b" fill-rule="evenodd"/>
    <path d="m -56.53413 312.031482 c 0.000657 5.255752 -4.259154 9.515564 -9.514906 9.514907 c -5.255751 -0.000657 -9.514315 -4.259221 -9.514972 -9.514972 c -0.000657 -5.255752 4.259155 -9.515563 9.514906 -9.514906 c 5.255752 0.000657 9.514315 4.25922 9.514972 9.514971 z m 0 0" fill="none" stroke="#ed333b" stroke-linecap="round" stroke-linejoin="round" stroke-width="5" transform="matrix(0.343417 0.358194 -0.343417 0.358194 169.098949 -3.927703)"/>
    <path d="m -58.999888 311.999902 c 0.002017 3.869403 -3.131702 7.003123 -7.001106 7.001105 c -3.869403 -0.002018 -6.999256 -3.131871 -7.001274 -7.001274 c 0.003435 -3.863951 3.137155 -6.997671 7.001105 -7.001106 c 3.869404 0.002018 6.999257 3.131871 7.001275 7.001275 z m 0 0" fill="none" stroke="#e01b24" stroke-linecap="round" stroke-linejoin="round" stroke-width="2" transform="matrix(0.343417 0.358194 -0.343417 0.358194 169.098949 -3.927703)"/>
    <path d="m 72.941406 51.949219 s 0.460938 0.863281 0.675782 2.164062 l -14.410157 15.03125 l -2.0625 -0.71875 z m 0 0" fill="url(#n)" fill-rule="evenodd"/>
    <path d="m 55.570312 70.800781 c -0.378906 0.398438 -0.378906 1.039063 0 1.433594 c 0.378907 0.394531 0.996094 0.394531 1.375 0 c 0.378907 -0.394531 0.378907 -1.035156 0 -1.433594 c -0.378906 -0.394531 -0.996093 -0.394531 -1.375 0 z m 0 0" fill="#3d3846"/>
    <g mask="url(#o)">
        <g clip-path="url(#p)" transform="matrix(1 0 0 1 -8 -16)">
            <path d="m 65.714844 89.101562 v 0.953126 l -2.882813 2.96875 l -0.03125 -0.882813 z m 0 0" fill-rule="evenodd"/>
        </g>
    </g>
    <g mask="url(#q)">
        <g clip-path="url(#r)" transform="matrix(1 0 0 1 -8 -16)">
            <path d="m 66.683594 87.011719 l -0.011719 1.066406 h 1.445313 l 0.011718 -1.066406 z m 0 0" fill-rule="evenodd"/>
        </g>
    </g>
</svg>
