<svg width="16" height="16" viewBox="0 0 16 16" fill="none" xmlns="http://www.w3.org/2000/svg">
<g clip-path="url(#clip0_3128_675)">
<path d="M5.01974 2.54314H4.12171C3.62583 2.54314 3.22382 2.94473 3.22368 3.43988V12.4073C3.22375 12.9024 3.62579 13.304 4.12171 13.304L8.3125 13.304L8.61184 13.9018H4.12171C3.29516 13.9018 2.62506 13.2326 2.625 12.4073V3.43988C2.62513 2.61457 3.29519 1.94531 4.12171 1.94531H5.01974V2.54314ZM5.01974 3.73879H4.42105V12.1084H8.01316V12.7062H3.82237V3.14096H5.01974V3.73879ZM11.0066 8.99994L10.4079 9.24994V3.73879H9.80921V3.14096H11.0066V8.99994ZM10.7072 1.94531C11.5338 1.94531 12.2038 2.61456 12.2039 3.43988V8.82031H11.6053V3.43988C11.6051 2.94473 11.2031 2.54314 10.7072 2.54314H9.80921V1.94531H10.7072Z" fill="black"/>
<mask id="mask0_3128_675" style="mask-type:luminance" maskUnits="userSpaceOnUse" x="5" y="7" width="9" height="8">
<path d="M13.75 7.32593H5.36841V14.4998H13.75V7.32593Z" fill="white"/>
<path d="M6.90826 8.0405C6.94132 7.93187 7.1923 7.88919 7.40989 7.95525C7.62737 8.02125 7.68322 8.06076 7.77413 8.12515C7.82296 8.1606 8.48098 9.11228 9.09487 10.0079C9.55933 10.1382 9.97104 10.2539 10.2349 10.329C10.2828 10.0733 10.4086 9.82632 10.6126 9.62731C11.1203 9.13207 11.9147 9.12173 12.387 9.60453C12.8594 10.0874 12.831 10.8805 12.3233 11.3758C11.8156 11.8711 11.0207 11.8809 10.5483 11.398C10.49 11.3383 10.4394 11.2739 10.3963 11.2059C10.3653 11.197 10.1326 11.1291 9.79293 11.0308C10.0116 11.3516 10.1601 11.5687 10.1683 11.5808C10.3494 11.6806 10.5055 11.8265 10.6161 12.0151C10.9578 12.5975 10.7385 13.3598 10.1262 13.7181C9.51377 14.0763 8.74021 13.8948 8.39854 13.3123C8.05691 12.73 8.27626 11.9677 8.8885 11.6093C8.9716 11.5607 9.05811 11.5222 9.1457 11.4932C8.99776 11.2737 8.80959 10.9924 8.60431 10.6858C7.5503 10.3776 6.41439 10.0411 6.36687 10.0062C6.27706 9.93895 6.22293 9.89854 6.09267 9.71256C5.96244 9.52657 5.92619 9.27543 6.01842 9.21044C6.05941 9.18169 6.9539 9.4158 7.93667 9.68512C7.38401 8.8484 6.89521 8.09006 6.90826 8.0405ZM10.032 12.3572C9.87046 12.0817 9.50437 11.9957 9.21472 12.1651C8.9252 12.3346 8.82169 12.6948 8.98321 12.9702C9.1448 13.2456 9.51029 13.3317 9.79994 13.1623C10.0895 12.9929 10.1934 12.6326 10.032 12.3572ZM11.9023 10.0774C11.679 9.8491 11.3035 9.85376 11.0634 10.0879C10.8233 10.3222 10.8096 10.6974 11.033 10.9257C11.2564 11.1539 11.6319 11.1488 11.872 10.9146C12.1121 10.6804 12.1258 10.3058 11.9023 10.0774Z" fill="black"/>
</mask>
<g mask="url(#mask0_3128_675)">
<path d="M6.90831 8.04041L6.33549 7.86656L6.33218 7.87744L6.32928 7.8885L6.90831 8.04041ZM7.77418 8.12506L8.12625 7.64148L8.12048 7.63741L7.77418 8.12506ZM9.09492 10.0079L8.60088 10.3455L8.72367 10.5247L8.93303 10.5834L9.09492 10.0079ZM10.235 10.3289L10.0708 10.9039L10.7027 11.0838L10.8234 10.4389L10.235 10.3289ZM10.3963 11.2058L10.9022 10.8861L10.7806 10.6943L10.5622 10.6314L10.3963 11.2058ZM9.79298 11.0307L9.95972 10.4565L8.36225 9.99399L9.29805 11.3671L9.79298 11.0307ZM10.1684 11.5807L9.67289 11.9162L9.75335 12.0347L9.87895 12.104L10.1684 11.5807ZM9.14575 11.4931L9.33463 12.0604L10.0826 11.8121L9.64241 11.1592L9.14575 11.4931ZM8.60436 10.6857L9.1021 10.3535L8.98129 10.1729L8.77259 10.1119L8.60436 10.6857ZM6.36692 10.0061L6.00774 10.4844L6.01208 10.4876L6.36692 10.0061ZM6.01847 9.21035L5.67423 8.72127L5.67325 8.72193L6.01847 9.21035ZM7.93672 9.68503L7.7783 10.2615L9.3123 10.6818L8.43649 9.35587L7.93672 9.68503ZM6.90831 8.04041L7.48112 8.21426C7.42954 8.38374 7.31375 8.46409 7.26984 8.48944C7.24391 8.50438 7.22333 8.51221 7.2119 8.51598C7.19999 8.51987 7.19252 8.52124 7.19035 8.52166C7.18684 8.52226 7.19247 8.52106 7.20509 8.5219C7.21721 8.52268 7.22824 8.52483 7.23585 8.52716L7.40994 7.95516L7.58405 7.38316C7.3883 7.32374 7.17719 7.31106 6.98951 7.34293C6.89601 7.35883 6.78135 7.39033 6.67024 7.45448C6.56317 7.51635 6.40361 7.6428 6.33549 7.86656L6.90831 8.04041ZM7.40994 7.95516L7.23585 8.52716C7.32885 8.55538 7.36178 8.57044 7.37214 8.57558C7.37872 8.57887 7.38159 8.57995 7.42788 8.61271L7.77418 8.12506L8.12048 7.63741C8.07586 7.60579 8.00535 7.55491 7.90691 7.50583C7.81224 7.45866 7.70853 7.42094 7.58405 7.38316L7.40994 7.95516ZM7.77418 8.12506L7.42214 8.60858C7.37518 8.57451 7.34511 8.54133 7.34403 8.54019C7.33592 8.53158 7.33113 8.52578 7.33106 8.52572C7.33059 8.52519 7.33443 8.52979 7.34419 8.54252C7.36297 8.56703 7.39124 8.60535 7.42925 8.65796C7.50453 8.76216 7.60836 8.90935 7.73152 9.08577C7.97735 9.43789 8.29415 9.89803 8.60088 10.3455L9.09492 10.0079L9.58895 9.6702C9.28177 9.22201 8.96267 8.75846 8.7138 8.40203C8.58963 8.22412 8.48139 8.07072 8.40038 7.95857C8.36025 7.90297 8.32431 7.85407 8.29535 7.81628C8.28124 7.79781 8.26535 7.77755 8.24956 7.75865C8.24185 7.74945 8.23051 7.73624 8.21701 7.72189C8.21054 7.71495 8.17626 7.67783 8.12625 7.64148L7.77418 8.12506ZM9.09492 10.0079L8.93303 10.5834C9.39779 10.7138 9.80825 10.8291 10.0708 10.9039L10.235 10.3289L10.3992 9.75408C10.1339 9.67851 9.72102 9.56247 9.2568 9.43227L9.09492 10.0079ZM10.235 10.3289L10.8234 10.4389C10.8493 10.301 10.9173 10.1658 11.0311 10.0548L10.6126 9.62722L10.1943 9.19953C9.90009 9.48661 9.71647 9.84554 9.64649 10.2191L10.235 10.3289ZM10.6126 9.62722L11.0311 10.0548C11.3224 9.7707 11.7367 9.79515 11.9588 10.0222L12.3871 9.60444L12.8154 9.18668C12.0928 8.44813 10.9184 8.4932 10.1943 9.19953L10.6126 9.62722ZM12.3871 9.60444L11.9588 10.0222C12.1813 10.2496 12.1959 10.6643 11.905 10.9481L12.3234 11.3757L12.7417 11.8034C13.4661 11.0966 13.5376 9.925 12.8154 9.18668L12.3871 9.60444ZM12.3234 11.3757L11.905 10.9481C11.6141 11.232 11.1991 11.2076 10.9766 10.9802L10.5483 11.3979L10.12 11.8156C10.8423 12.5539 12.0172 12.5101 12.7417 11.8034L12.3234 11.3757ZM10.5483 11.3979L10.9766 10.9802C10.9481 10.951 10.9235 10.9196 10.9022 10.8861L10.3963 11.2058L9.89051 11.5256C9.95541 11.628 10.0319 11.7254 10.12 11.8156L10.5483 11.3979ZM10.3963 11.2058L10.5622 10.6314C10.5312 10.6225 10.302 10.5556 9.95972 10.4565L9.79298 11.0307L9.62625 11.6049C9.96319 11.7025 10.1994 11.7713 10.2304 11.7802L10.3963 11.2058ZM9.79298 11.0307L9.29805 11.3671C9.40749 11.5276 9.49939 11.6623 9.565 11.7583C9.59775 11.8063 9.62398 11.8447 9.64247 11.8717C9.65169 11.8853 9.659 11.896 9.66427 11.9036C9.6669 11.9074 9.66894 11.9105 9.67049 11.9128C9.67127 11.9138 9.67187 11.9147 9.67229 11.9154C9.67277 11.9161 9.67295 11.9163 9.67289 11.9162L10.1684 11.5807L10.6638 11.2451C10.6556 11.2329 10.5051 11.013 10.2879 10.6943L9.79298 11.0307ZM10.1684 11.5807L9.87895 12.104C9.97055 12.1545 10.0461 12.226 10.0996 12.3172L10.6162 12.015L11.1327 11.7129C10.965 11.4269 10.7282 11.2064 10.4578 11.0573L10.1684 11.5807ZM10.6162 12.015L10.0996 12.3172C10.2604 12.5914 10.1746 12.9968 9.82358 13.2022L10.1262 13.718L10.4288 14.2338C11.3024 13.7227 11.6553 12.6034 11.1327 11.7129L10.6162 12.015ZM10.1262 13.718L9.82358 13.2022C9.47227 13.4078 9.07588 13.2841 8.91513 13.0101L8.39859 13.3122L7.88201 13.6144C8.40464 14.5053 9.55531 14.7448 10.4288 14.2338L10.1262 13.718ZM8.39859 13.3122L8.91513 13.0101C8.75433 12.736 8.84024 12.3305 9.19125 12.125L8.88855 11.6093L8.58592 11.0934C7.71254 11.6046 7.35954 12.7238 7.88201 13.6144L8.39859 13.3122ZM8.88855 11.6093L9.19125 12.125C9.23693 12.0983 9.285 12.0769 9.33463 12.0604L9.14575 11.4931L8.95692 10.9258C8.83138 10.9675 8.70655 11.0228 8.58592 11.0934L8.88855 11.6093ZM9.14575 11.4931L9.64241 11.1592C9.49514 10.9408 9.30769 10.6606 9.1021 10.3535L8.60436 10.6857L8.10665 11.0179C8.31155 11.324 8.50048 11.6065 8.64914 11.827L9.14575 11.4931ZM8.60436 10.6857L8.77259 10.1119C8.24589 9.95794 7.70033 9.79736 7.2811 9.6711C7.07108 9.60785 6.89529 9.55393 6.7702 9.51411C6.70708 9.49402 6.66085 9.47878 6.631 9.46832C6.61547 9.46294 6.60964 9.46066 6.61021 9.46084C6.61075 9.46108 6.61247 9.46174 6.61511 9.46288C6.61762 9.46395 6.62221 9.46593 6.62824 9.46874C6.62879 9.46903 6.67235 9.48828 6.72176 9.52463L6.36692 10.0061L6.01208 10.4876C6.06446 10.5261 6.11312 10.5482 6.12082 10.5518C6.1389 10.5602 6.15522 10.5669 6.16639 10.5714C6.18933 10.5805 6.21381 10.5893 6.23595 10.597C6.28143 10.6129 6.33998 10.6321 6.40649 10.6533C6.5407 10.696 6.72367 10.752 6.93532 10.8158C7.35943 10.9435 7.90885 11.1053 8.43619 11.2594L8.60436 10.6857ZM6.36692 10.0061L6.72609 9.5278C6.67992 9.49325 6.67777 9.49068 6.67225 9.48506C6.66391 9.47657 6.6393 9.44972 6.58336 9.36985L6.09272 9.71247L5.60207 10.055C5.67639 10.1611 5.74399 10.2476 5.81772 10.3226C5.8943 10.4005 5.9641 10.4518 6.00774 10.4844L6.36692 10.0061ZM6.09272 9.71247L6.58336 9.36985C6.57899 9.36364 6.57366 9.35413 6.56923 9.34307C6.56463 9.33153 6.56403 9.32591 6.56454 9.32938C6.56485 9.33153 6.56582 9.33895 6.56578 9.35126C6.56572 9.36316 6.56471 9.38486 6.55858 9.41374C6.54832 9.46222 6.50843 9.59679 6.36369 9.69878L6.01847 9.21035L5.67325 8.72193C5.4824 8.85644 5.41245 9.04679 5.38712 9.16641C5.36072 9.29106 5.36609 9.40913 5.37981 9.50269C5.40736 9.69047 5.4845 9.88709 5.60207 10.055L6.09272 9.71247ZM6.01847 9.21035L6.36271 9.6995C6.24217 9.78409 6.12503 9.7982 6.10452 9.80095C6.06464 9.80627 6.03423 9.80591 6.02269 9.80567C5.99804 9.80513 5.98412 9.8028 5.99052 9.8037C5.99966 9.80495 6.02545 9.80932 6.07372 9.81948C6.16692 9.83909 6.30414 9.87179 6.47794 9.91555C6.82335 10.0026 7.28784 10.1271 7.7783 10.2615L7.93672 9.68503L8.09513 9.10848C7.60281 8.97362 7.12868 8.8464 6.77091 8.75625C6.59311 8.71147 6.43761 8.67416 6.32085 8.64959C6.26414 8.63764 6.20565 8.62634 6.15418 8.61922C6.13028 8.61594 6.09198 8.61127 6.04925 8.61032C6.02867 8.60984 5.99079 8.60978 5.94506 8.61594C5.9187 8.61946 5.79732 8.63489 5.67423 8.72127L6.01847 9.21035ZM7.93672 9.68503L8.43649 9.35587C8.16064 8.93822 7.90305 8.54366 7.7168 8.24869C7.62308 8.10025 7.551 7.98266 7.50442 7.90201C7.48031 7.86022 7.46844 7.83769 7.46455 7.82968C7.46186 7.82418 7.4682 7.83631 7.47619 7.85891C7.47998 7.86961 7.48933 7.89705 7.49654 7.93465C7.50056 7.95558 7.52182 8.06127 7.48734 8.19232L6.90831 8.04041L6.32928 7.8885C6.29398 8.02265 6.31541 8.13277 6.32054 8.15956C6.32888 8.20302 6.3403 8.23763 6.34708 8.25682C6.36106 8.2964 6.37711 8.33071 6.38761 8.3523C6.41012 8.39851 6.43862 8.44986 6.46713 8.49924C6.5258 8.60087 6.60801 8.73443 6.70395 8.88639C6.89701 9.19212 7.16014 9.59506 7.43695 10.0141L7.93672 9.68503ZM10.0321 12.3571L10.5489 12.0553C10.2064 11.4716 9.46311 11.327 8.91214 11.6492L9.21477 12.1651L9.51735 12.6809C9.52286 12.6777 9.52693 12.6766 9.5295 12.6763C9.53088 12.676 9.53208 12.676 9.53292 12.676C9.53184 12.6755 9.5298 12.6742 9.52777 12.6727C9.5231 12.6694 9.51861 12.6645 9.51555 12.6593L10.0321 12.3571ZM9.21477 12.1651L8.91214 11.6492C8.36128 11.9717 8.12451 12.6888 8.4666 13.2722L8.98326 12.9701L9.49987 12.6681C9.5028 12.6731 9.50484 12.6794 9.5055 12.685C9.50609 12.6902 9.50532 12.6928 9.50532 12.6928C9.50532 12.6929 9.5058 12.6913 9.50753 12.6891C9.50903 12.6871 9.51178 12.6841 9.51735 12.6809L9.21477 12.1651ZM8.98326 12.9701L8.4666 13.2722C8.80893 13.8558 9.55147 14.0004 10.1026 13.678L9.79999 13.1622L9.49741 12.6464C9.49185 12.6496 9.48777 12.6507 9.48532 12.651C9.48394 12.6512 9.48281 12.6513 9.48203 12.6512C9.48125 12.6512 9.48083 12.6511 9.48089 12.6511C9.48089 12.6511 9.48352 12.6517 9.48771 12.6547C9.49238 12.6581 9.49693 12.663 9.49987 12.6681L8.98326 12.9701ZM9.79999 13.1622L10.1026 13.678C10.6531 13.356 10.8909 12.6391 10.5489 12.0553L10.0321 12.3571L9.51555 12.6593C9.51256 12.6542 9.51029 12.6475 9.50963 12.6418C9.50933 12.6391 9.50939 12.6372 9.50951 12.6359C9.50963 12.6346 9.50981 12.634 9.50981 12.634C9.50981 12.634 9.50969 12.6344 9.50933 12.6352C9.50891 12.6359 9.50831 12.6369 9.50747 12.638C9.50591 12.64 9.50298 12.6431 9.49741 12.6464L9.79999 13.1622ZM11.9024 10.0773L12.3307 9.65956C11.8574 9.1758 11.1019 9.2146 10.6451 9.66016L11.0635 10.0878L11.4818 10.5155C11.4864 10.511 11.4901 10.509 11.4924 10.5081C11.4937 10.5075 11.4947 10.5072 11.4955 10.5071C11.4964 10.5069 11.4967 10.5069 11.4967 10.5069C11.4967 10.5069 11.494 10.507 11.4891 10.505C11.4838 10.5029 11.4783 10.4993 11.4741 10.4951L11.9024 10.0773ZM11.0635 10.0878L10.6451 9.66016C10.1885 10.1055 10.1312 10.8593 10.6047 11.3433L11.033 10.9256L11.4613 10.5079C11.4655 10.5122 11.469 10.5179 11.471 10.5232C11.4719 10.5256 11.4724 10.5275 11.4725 10.5287C11.4727 10.5294 11.4727 10.5298 11.4727 10.5301C11.4727 10.5299 11.4728 10.5297 11.473 10.5293C11.4731 10.5284 11.4734 10.5274 11.474 10.5261C11.4751 10.5237 11.4772 10.52 11.4818 10.5155L11.0635 10.0878ZM11.033 10.9256L10.6047 11.3433C11.0787 11.8276 11.8342 11.787 12.2903 11.3422L11.872 10.9145L11.4537 10.4868C11.449 10.4914 11.4452 10.4935 11.4428 10.4945C11.4414 10.495 11.4403 10.4953 11.4395 10.4955C11.4386 10.4957 11.4382 10.4957 11.4382 10.4957C11.4383 10.4957 11.4389 10.4957 11.4402 10.4959C11.4415 10.4962 11.4434 10.4966 11.4459 10.4976C11.4513 10.4997 11.4571 10.5036 11.4613 10.5079L11.033 10.9256ZM11.872 10.9145L12.2903 11.3422C12.7469 10.8969 12.8042 10.1437 12.3307 9.65956L11.9024 10.0773L11.4741 10.4951C11.47 10.4908 11.4665 10.4852 11.4644 10.4798C11.4627 10.4748 11.4627 10.4721 11.4627 10.472C11.4627 10.472 11.4627 10.4736 11.4615 10.4763C11.4604 10.4786 11.4583 10.4822 11.4537 10.4868L11.872 10.9145Z" fill="black"/>
</g>
<path d="M8.61178 1.94565C8.61178 2.60599 8.0757 3.1413 7.41441 3.1413C6.75312 3.1413 6.21704 2.60599 6.21704 1.94565C6.21704 1.28531 6.75312 0.75 7.41441 0.75C8.0757 0.75 8.61178 1.28531 8.61178 1.94565ZM6.96847 1.94565C6.96847 2.19159 7.16812 2.39095 7.41441 2.39095C7.6607 2.39095 7.86035 2.19159 7.86035 1.94565C7.86035 1.69972 7.6607 1.50036 7.41441 1.50036C7.16812 1.50036 6.96847 1.69972 6.96847 1.94565Z" fill="black"/>
<path d="M9.21051 3.73903C9.21045 4.06914 8.94242 4.33686 8.61183 4.33686H6.21709C5.8865 4.33686 5.61849 4.06914 5.61841 3.73903V1.94556H6.81812C6.81657 1.96305 6.81578 1.98079 6.81578 1.99869C6.81579 2.32883 7.08383 2.59651 7.41446 2.59651C7.74509 2.59651 8.01313 2.32883 8.01314 1.99869C8.01314 1.98079 8.01235 1.96305 8.0108 1.94556H9.21051V3.73903Z" fill="black"/>
</g>
<defs>
<clipPath id="clip0_3128_675">
<rect width="11.375" height="13.75" fill="white" transform="translate(2.625 0.75)"/>
</clipPath>
</defs>
</svg>
